<?xml version="1.0" encoding="utf-8"?>
<!-- Generator: Adobe Illustrator 21.0.2, SVG Export Plug-In . SVG Version: 6.00 Build 0)  -->
<svg version="1.1" id="Capa_1" xmlns="http://www.w3.org/2000/svg" xmlns:xlink="http://www.w3.org/1999/xlink" x="0px" y="0px"
	 width="347.4px" height="349.3px" viewBox="0 0 347.4 349.3" style="enable-background:new 0 0 347.4 349.3;" xml:space="preserve"
	>
<g>
	<g>
		<path d="M346.2,284.3c4.2-11.9-3.8-24.8-13.9-29.3L266,225.6c-3.2-1.4-7-2.2-11-2.2c-8.2,0-16.4,3-21.5,7.9l-20.9,20.3
			c-3.1,3-8.6,5-13.8,5c-2.2,0-4.1-0.4-5.6-1.1c-14.1-7.1-36.3-21.2-61.8-48.3c-22.7-24.1-33.5-40.6-38.5-50.2
			c-2.8-5.4,0.1-14.7,4.6-19.1l18.6-18.6c7.7-7.7,11.2-21.9,7.9-32.4l-20.9-66.4C99.9,10.5,89.2,0,76.6,0C59.3,0.6,35,6.8,17.5,33
			C-9.6,73.7-8,151.8,41.9,207.3C88.2,258.9,157,315.9,157.6,316.4c1.5,1.3,37,32.9,88.9,32.9c5,0,10.1-0.3,15.2-0.9
			C318.2,341.6,338.9,305.3,346.2,284.3z M260.3,336.6c-4.6,0.6-9.2,0.8-13.8,0.8c-46.7,0-79.7-28.7-81.1-30
			c-2.8-2.4-69.9-58.2-114.7-108.1C6.1,149.7,2.6,76.7,27.3,39.6c14.7-22.1,35.3-27.3,50-27.8c6,0,12.7,6.6,14.5,12.3l20.9,66.4
			c2,6.3-0.4,15.8-5,20.4l-18.6,18.6c-7.6,7.6-12.1,22.7-6.7,33c5.4,10.3,16.8,27.8,40.4,52.8c26.8,28.4,50.2,43.3,65.2,50.8
			c3.1,1.5,6.8,2.4,10.9,2.4c8.2,0,16.7-3.2,22-8.4l20.9-20.3c4.2-4,14.1-5.8,19.4-3.5l66.4,29.5c5.1,2.3,9.5,9.1,7.6,14.5
			C328.7,298.8,310.4,330.6,260.3,336.6z"/>
	</g>
</g>
</svg>
