<?xml version="1.0" encoding="utf-8"?>
<!-- Generator: Adobe Illustrator 21.0.2, SVG Export Plug-In . SVG Version: 6.00 Build 0)  -->
<svg version="1.1" id="Layer_1" xmlns="http://www.w3.org/2000/svg" xmlns:xlink="http://www.w3.org/1999/xlink" x="0px" y="0px"
	 width="45.8px" height="50.7px" viewBox="0 0 45.8 50.7" style="enable-background:new 0 0 45.8 50.7;" xml:space="preserve">
<style type="text/css">
	.st0{fill:none;stroke:#5F5F5F;stroke-miterlimit:10;}
	.st1{fill:none;stroke:#5F5F5F;stroke-miterlimit:10;stroke-dasharray:2;}
</style>
<path class="st0" d="M1.6,8.2l1.9-3.8c0,0,4.8,1.9,8.7,1s5.8-4.8,5.8-4.8l3.8,0.6c1.3,0.2,2.6,0.2,3.9-0.1l2.9-0.6
	c0,0,1,2.9,4.8,4.8s9.7-1,9.7-1l1.9,3.8c0,0-9.7,5.7-8.7,16.2s8.7,19.1,8.7,19.1l-2.9,3.8c0,0-5.8-2.9-8.7-1
	c-2.9,1.9-5.8,3.7-5.8,3.7s-1-1-3.9-1.9s-5.8,1.9-5.8,1.9s-3.9-2.8-6.8-3.7c-2.9-1-7.7,1-7.7,1l-2.9-3.8c0,0,10.6-11.4,9.7-19.1
	S2.6,9.2,2.6,9.2l0,0"/>
<path class="st1" d="M4.5,8.2l1-1c0,0,5.6,1.5,8.6,0.7s5.5-5,5.5-5l3.3,1.4c1,0.2,0.8,0.2,1.8,0L27.9,3c0,0-0.2,3.4,2.8,5
	s11.5-0.7,11.5-0.7v1c0,0-10,7.1-9.2,16s8.7,19.1,8.7,19.1l-0.1,2.2c0,0-8.6-4.3-10.9-2.7s-4.5,2.9-4.5,2.9s-0.8-0.8-3-1.6
	c-2.3-0.8-4.5,1.6-4.5,1.6s-3-2.1-5.3-2.9c-2.3-0.8-8.8,2.5-8.8,2.5l-1.5-2.1c0,0,10.3-12.6,9.5-19.1s-6.1-13-6.1-13l0,0"/>
<line class="st0" x1="1.6" y1="8.2" x2="2.6" y2="9.2"/>
<ellipse class="st0" cx="23.4" cy="10.6" rx="3.4" ry="3.3"/>
</svg>
