<?xml version="1.0" encoding="utf-8"?>
<!-- Generator: Adobe Illustrator 21.0.2, SVG Export Plug-In . SVG Version: 6.00 Build 0)  -->
<svg version="1.1" id="Isolation_Mode" xmlns="http://www.w3.org/2000/svg" xmlns:xlink="http://www.w3.org/1999/xlink" x="0px"
	 y="0px" width="63.5px" height="37.5px" viewBox="0 0 63.5 37.5" style="enable-background:new 0 0 63.5 37.5;"
	 xml:space="preserve">
<style type="text/css">
	.st0{fill:none;stroke:#5F5F5F;stroke-linecap:round;stroke-miterlimit:10;}
	.st1{fill:none;}
	.st2{fill:none;stroke:#5F5F5F;stroke-linecap:round;stroke-miterlimit:10;stroke-dasharray:2;}
</style>
<path class="st0" d="M14,23.2c0,0,1,1,10,4s28,9,28,9s9,2,10,0c0.5-0.9,0.1-1.4-0.5-1.7c-0.6-0.3-1.5-0.3-1.5-0.3s-9-2-13-3
	s-18-5-22-7s-9-5-9-5s-2-1-2,1C14,23.3,14,23.2,14,23.2"/>
<path class="st0" d="M43,29.7c0,0,4.6-1.8,5.6-4.4s0.9-3.6,0.9-3.6"/>
<path class="st1" d="M62.5,33.7"/>
<path class="st0" d="M62,34.2c0,0,2-1,0-3c-2-2-7-4-7-4s-8-8-10-11"/>
<path class="st0" d="M45,16.2c0,0-4-9-4-12c0-2.2,0-3-3-2s-13,0-14-1s-2,0-3,2s-6,15-6,15"/>
<circle class="st0" cx="41.5" cy="13.7" r="0.5"/>
<circle class="st0" cx="42.5" cy="16.7" r="0.5"/>
<circle class="st0" cx="43.5" cy="19.7" r="0.5"/>
<circle class="st0" cx="45.5" cy="21.7" r="0.5"/>
<path class="st0" d="M48,26.2c0,0,3,2,5,3s10,4,10,4"/>
<path class="st0" d="M21,4.2"/>
<path class="st0" d="M36,12.6"/>
<path class="st0" d="M22,1.2c0,0-1-2-2,1c-0.9,2.7,5,11,5,11s11.2,13.7,13,15"/>
<path class="st0" d="M40,20.2"/>
<path class="st0" d="M23,23.2c0,0,2-5,4-7"/>
<path class="st0" d="M36,3.2c0,0,0,1,5,2"/>
<path class="st0" d="M41,7.2c0,0-8,3-12,7"/>
<line class="st0" x1="29" y1="14.2" x2="42" y2="29.2"/>
<line class="st0" x1="29" y1="14.2" x2="21.5" y2="2.7"/>
<line class="st0" x1="42" y1="36.2" x2="5" y2="36.2"/>
<line class="st0" x1="38.9" y1="35" x2="2.1" y2="31.3"/>
<line class="st2" x1="36.6" y1="33.3" x2="0.5" y2="25"/>
</svg>
