<?xml version="1.0" encoding="utf-8"?>
<!-- Generator: Adobe Illustrator 21.0.2, SVG Export Plug-In . SVG Version: 6.00 Build 0)  -->
<svg version="1.1" id="Layer_1" xmlns="http://www.w3.org/2000/svg" xmlns:xlink="http://www.w3.org/1999/xlink" x="0px" y="0px"
	 width="46.2px" height="58.8px" viewBox="0 0 46.2 58.8" style="enable-background:new 0 0 46.2 58.8;" xml:space="preserve">
<style type="text/css">
	.st0{fill:none;stroke:#5F5F5F;stroke-miterlimit:10;}
	.st1{fill:none;stroke:#5F5F5F;stroke-linecap:round;stroke-miterlimit:10;}
	.st2{fill:#5F5F5F;}
</style>
<g>
	<path class="st0" d="M38.7,57.7v-1.4V43.4c0-0.1,0-0.1,0-0.2c0.3-1.1,4-14.1,4-18.9c0-4.5-2.4-19.5-2.9-22.5c0-0.3,0.1-0.6,0.4-0.7
		L42,0.5c0.4-0.1,0.8,0.1,0.8,0.5c0.5,3.6,2.9,19.6,2.9,22.3c0,2.6-3,15-3.8,18.2c-0.1,0.4,0.2,0.8,0.6,0.8h1.6
		c0.3,0,0.6,0.3,0.6,0.6v14.4c0,0,0,1-1,1h-4.4C39,58.3,38.7,58,38.7,57.7z"/>
	<path class="st0" d="M39.2,57.8c0,0-2,1-6,0c-3.1-0.8-6.3-2.2-7.5-2.7c-0.3-0.1-0.4-0.5-0.2-0.7c0.9-1.5,3.5-6.2,2.7-9.5
		c-0.8-3.2-3.5-8.9-4.6-11.1c-0.3-0.6-0.2-1.2,0.2-1.7l11.7-14.5c0.4-0.5,0.6-1.1,0.6-1.7v-11c0,0,0-4,4-3"/>
	<line class="st1" x1="26.2" y1="29.8" x2="27.7" y2="31.3"/>
	<line class="st1" x1="28.2" y1="26.8" x2="29.7" y2="28.3"/>
	<line class="st1" x1="30.7" y1="24.3" x2="32.2" y2="25.8"/>
	<path class="st0" d="M7.5,1.1v1.4v12.9c0,0.1,0,0.1,0,0.2c-0.3,1.1-4,14.1-4,18.9C3.5,39,5.9,54,6.4,57c0,0.3-0.1,0.6-0.4,0.7
		l-1.8,0.6c-0.4,0.1-0.8-0.1-0.8-0.5c-0.5-3.6-2.9-19.6-2.9-22.3c0-2.6,3-15,3.8-18.2c0.1-0.4-0.2-0.8-0.6-0.8H2.1
		c-0.3,0-0.6-0.3-0.6-0.6V1.5c0,0,0-1,1-1h4.4C7.2,0.5,7.5,0.8,7.5,1.1z"/>
	<path class="st0" d="M7,1c0,0,2-1,6,0c3.1,0.8,6.3,2.2,7.5,2.7c0.3,0.1,0.4,0.5,0.2,0.7C19.8,6,17.2,10.7,18,14
		c0.8,3.2,3.5,8.9,4.6,11.1c0.3,0.6,0.2,1.2-0.2,1.7l-9.7,14.5C12.2,41.7,12,42.3,12,43l-2,11c0,0,0,4-4,3"/>
	<line class="st1" x1="17.2" y1="34.8" x2="14.2" y2="32.8"/>
	<line class="st1" x1="19.2" y1="31.8" x2="16.2" y2="29.8"/>
	<line class="st1" x1="21.2" y1="28.8" x2="18.2" y2="26.8"/>
	<path class="st1" d="M4.7,44.8c0,0,1.9,2,2.8,2c2.1,0,4.7-5,4.7-5"/>
	<circle class="st2" cx="6.7" cy="48.3" r="0.5"/>
	<circle class="st2" cx="8.7" cy="48.3" r="0.5"/>
	<circle class="st2" cx="12.7" cy="38.3" r="0.5"/>
	<circle class="st2" cx="10.7" cy="36.3" r="0.5"/>
	<circle class="st2" cx="8.7" cy="34.3" r="0.5"/>
	<circle class="st2" cx="7.2" cy="30.8" r="0.5"/>
	<circle class="st2" cx="7.2" cy="26.8" r="0.5"/>
	<circle class="st2" cx="8.2" cy="22.8" r="0.5"/>
	<circle class="st2" cx="10.2" cy="46.8" r="0.5"/>
	<path class="st1" d="M7.2,17.8c0,0,4,1,3,4c-0.7,2.2-1.8,6.2-1,9c0.3,1.1,1,2.3,2,3l4,3"/>
</g>
</svg>
