<?xml version="1.0" encoding="utf-8"?>
<!-- Generator: Adobe Illustrator 21.0.2, SVG Export Plug-In . SVG Version: 6.00 Build 0)  -->
<svg version="1.1" id="Layer_1" xmlns="http://www.w3.org/2000/svg" xmlns:xlink="http://www.w3.org/1999/xlink" x="0px" y="0px"
	 width="57.4px" height="49.5px" viewBox="0 0 57.4 49.5" style="enable-background:new 0 0 57.4 49.5;" xml:space="preserve">
<style type="text/css">
	.st0{fill:none;stroke:#5F5F5F;stroke-miterlimit:10;}
	.st1{fill:none;stroke:#5F5F5F;stroke-linecap:round;stroke-miterlimit:10;}
	.st2{fill:#5F5F5F;}
</style>
<path class="st0" d="M4.1,42.5h1.3h11.9c0.1,0,0.1,0,0.2,0c1,0.3,13.1,3.7,17.5,3.7c4.1,0,18-2.2,20.7-2.7c0.3,0,0.5,0.1,0.6,0.4
	l0.6,1.7c0.1,0.3-0.1,0.7-0.5,0.8C53,46.8,38.3,49,35.8,49C33.4,49,22,46.2,19,45.5c-0.4-0.1-0.7,0.2-0.7,0.6v1.5
	c0,0.3-0.3,0.6-0.6,0.6H4.4c0,0-0.9,0-0.9-0.9v-4C3.5,42.8,3.8,42.5,4.1,42.5z"/>
<path class="st0" d="M4,43c0,0-0.9-1.8,0-5.5c0.7-2.9,2-5.8,2.5-6.9c0.1-0.3,0.4-0.4,0.7-0.2c1.4,0.8,5.7,3.3,8.8,2.5
	c2.9-0.7,8.2-3.2,10.2-4.2c0.5-0.3,1.1-0.2,1.6,0.2l13.3,9c0.4,0.4,1,0.6,1.6,0.6l10.2,1.8c0,0,3.7,0,2.8,3.7"/>
<line class="st1" x1="35.2" y1="33.6" x2="33.3" y2="36.3"/>
<line class="st1" x1="32.4" y1="31.7" x2="30.5" y2="34.5"/>
<line class="st1" x1="29.6" y1="29.9" x2="27.8" y2="32.6"/>
<path class="st1" d="M44.4,45.1c0,0,1.8-1.7,1.8-2.6c0-1.9-4.6-4.3-4.6-4.3"/>
<circle class="st2" cx="47.6" cy="43.3" r="0.5"/>
<circle class="st2" cx="47.6" cy="41.4" r="0.5"/>
<circle class="st2" cx="38.4" cy="37.7" r="0.5"/>
<circle class="st2" cx="36.5" cy="39.6" r="0.5"/>
<circle class="st2" cx="34.7" cy="41.4" r="0.5"/>
<circle class="st2" cx="31.5" cy="42.8" r="0.5"/>
<circle class="st2" cx="27.8" cy="42.8" r="0.5"/>
<circle class="st2" cx="24.1" cy="41.9" r="0.5"/>
<circle class="st2" cx="46.2" cy="40" r="0.5"/>
<path class="st1" d="M19.5,42.8c0,0,0.9-3.7,3.7-2.8c2,0.7,5.7,1.7,8.3,0.9c1.1-0.3,2.1-1,2.8-1.8l2.8-3.7"/>
<g>
	<g>
		<line class="st1" x1="8.5" y1="0.5" x2="8.5" y2="16.5"/>
		<polyline class="st1" points="6.5,1.5 8.5,3.5 10.5,1.5 		"/>
		<polyline class="st1" points="10.5,15.5 8.5,13.5 6.5,15.5 		"/>
	</g>
	<g>
		<line class="st1" x1="16.5" y1="8.5" x2="0.5" y2="8.5"/>
		<polyline class="st1" points="15.5,6.5 13.5,8.5 15.5,10.5 		"/>
		<polyline class="st1" points="1.5,10.5 3.5,8.5 1.5,6.5 		"/>
	</g>
	<g>
		<line class="st1" x1="14.2" y1="14.2" x2="2.8" y2="2.8"/>
		<polyline class="st1" points="14.9,12 12,12 12,14.9 		"/>
		<polyline class="st1" points="2.1,5 5,5 5,2.1 		"/>
	</g>
	<g>
		<line class="st1" x1="2.8" y1="14.2" x2="14.2" y2="2.8"/>
		<polyline class="st1" points="5,14.9 5,12 2.1,12 		"/>
		<polyline class="st1" points="12,2.1 12,5 14.9,5 		"/>
	</g>
</g>
<g>
	<path class="st2" d="M28,1.5c2.2,2.6,5,6.6,5,8.5c0,2.8-2.2,5-5,5s-5-2.2-5-5C23,8.1,25.8,4.1,28,1.5 M28,0c0,0-6,6.7-6,10
		s2.7,6,6,6s6-2.7,6-6S28,0,28,0L28,0z"/>
</g>
<g>
	<g>
		<path class="st2" d="M52.3,2.9c2.1,0,3.7,1.7,3.7,3.7c0,2.1-1.7,3.7-3.7,3.7s-3.7-1.7-3.7-3.7C48.6,4.6,50.3,2.9,52.3,2.9
			 M52.3,1.9c-2.6,0-4.7,2.1-4.7,4.7c0,2.6,2.1,4.7,4.7,4.7s4.7-2.1,4.7-4.7C57.1,4,54.9,1.9,52.3,1.9L52.3,1.9z"/>
	</g>
	<line class="st1" x1="47.1" y1="2.4" x2="42.4" y2="0.5"/>
	<line class="st1" x1="46.2" y1="6.2" x2="40.5" y2="6.2"/>
	<line class="st1" x1="46.8" y1="9.6" x2="41.7" y2="12.2"/>
	<line class="st1" x1="49.4" y1="12.2" x2="46.8" y2="17.2"/>
	<line class="st1" x1="52.8" y1="12.8" x2="52.8" y2="18"/>
</g>
</svg>
