<?xml version="1.0" encoding="utf-8"?>
<!-- Generator: Adobe Illustrator 21.0.2, SVG Export Plug-In . SVG Version: 6.00 Build 0)  -->
<svg version="1.1" id="Isolation_Mode" xmlns="http://www.w3.org/2000/svg" xmlns:xlink="http://www.w3.org/1999/xlink" x="0px"
	 y="0px" width="51.8px" height="63.5px" viewBox="0 0 51.8 63.5" style="enable-background:new 0 0 51.8 63.5;"
	 xml:space="preserve">
<style type="text/css">
	.st0{fill:none;stroke:#5F5F5F;stroke-miterlimit:10;}
	.st1{fill:none;}
</style>
<g>
	<path class="st0" d="M25.1,25.7l-11,17c0,0-6,6-11,1s7-18,7-18s11-18.4,19-23c7-4,14-2,15,2c0.8,3.4-4.7,11-6.5,13.3
		c-0.3,0.4-0.8,0.8-1.3,1.1L25.1,25.7z"/>
	<path class="st0" d="M3.1,52.7l12-6c0,0,5-4,8-9s10-12,15-13s6,0,7,4s-1,11-4,14s-15,9-17,11s-9,6-12,8s-9,2-11-2
		S3.1,52.7,3.1,52.7z"/>
	<line class="st1" x1="0.6" y1="25.2" x2="5.6" y2="30.2"/>
	<path class="st1" d="M40.6,13.2"/>
	<path class="st0" d="M41.1,12.7l-1,9l10.2,1.7c0.8,0.1,1.2,1.1,0.7,1.7l-4.9,6.6l5.1,8.4c0.5,0.8,0,1.8-0.9,1.9l-10.7,2.1l2,8.6
		c0.2,0.8-0.6,1.5-1.4,1.1l-9.2-4.2l-5,9.3c-0.4,0.7-1.3,0.6-1.6-0.1l-1.4-4.1"/>
	<path class="st0" d="M18.1,13.7l-6.9-2.3c-0.5-0.3-1.1,0-1.1,0.6v9.7l-8.3,2.5C1,24.4,0.7,25.4,1.2,26l4.4,5.1"/>
	<line class="st0" x1="9.1" y1="45.7" x2="14.6" y2="47.2"/>
</g>
</svg>
