<svg id="Isolation_Mode" data-name="Isolation Mode" xmlns="http://www.w3.org/2000/svg" viewBox="0 0 365.39 131.93"><defs><style>.cls-1{fill:none;stroke:#fff;stroke-miterlimit:10;}.cls-2{fill:#fff;}.cls-2,.cls-3{fill-rule:evenodd;}.cls-3{fill:#ed1c24;}</style></defs><title>Artboard 1</title><rect class="cls-1" x="0.5" y="0.5" width="364.39" height="96.43"/><path class="cls-2" d="M53.94,18.88H22.57v3.76H36.2V80h3.93V22.63H53.94V18.88ZM85.92,80l-4-15.64H61.54L57.52,80H53.33L69.49,18.88H74L90.12,80ZM62.5,60.73H80.94L74.56,35.65c-1-4.19-2.1-8.83-2.8-11.62h-.09c-.7,2.8-1.75,7.43-2.8,11.62L62.5,60.73ZM98.33,18.88V80h3.93V18.88Zm22,57.41V18.88h-3.93V80h26.48V76.28Zm44.91,4.81c10.57,0,17-7.08,17-19.14V37.05c0-12.23-6.47-19.22-17-19.22s-17,7-17,19.22V62c0,12.06,6.47,19.14,17,19.14Zm0-3.84c-8.21,0-12.93-5.33-12.93-15.29V37.05c0-10,4.72-15.38,12.93-15.38s13,5.33,13,15.38V62c0,10-4.72,15.29-13,15.29ZM221.45,80H226L211,55c8.65-1.14,13.81-7.78,13.81-18.44,0-11.36-6-17.65-17.3-17.65H194.71V80h3.93V55.14h8.13L221.45,80ZM198.64,22.63h8.91c8.74,0,13.28,4.63,13.28,14.07,0,9.61-4.54,14.77-12.41,14.77h-9.79Z"/><path class="cls-3" d="M231.95,57.72v-.64h-1.16v.64c0,2.71,1.63,4.25,4.63,4.25H237v2.24h1.17V62h14.07V60.69H238.12V57.37H237v3.32h-1.54c-2.39,0-3.47-1.08-3.47-3Zm20.56-7.57c0-2.94-1.92-4.83-5.21-4.83h-5.45c-3.29,0-5.21,1.89-5.21,4.83S238.56,55,241.85,55h5.45c3.29,0,5.21-1.86,5.21-4.84Zm-1.22,0c0,2.21-1.4,3.58-4,3.58h-5.45c-2.59,0-4-1.37-4-3.58s1.4-3.55,4-3.55h5.45c2.59,0,4,1.34,4,3.55ZM236.64,36.28a4.47,4.47,0,0,0,2.59,4.08h-.35l-1.92.17v1.08h15.2V40.36H242.9c-3.06,0-5-1.57-5-3.82a5.94,5.94,0,0,1,.26-1.84h-1.34A5.86,5.86,0,0,0,236.64,36.28Z"/><path class="cls-2" d="M297.83,18.88,285.43,48.93c-1.4,3.23-3.06,8-4.11,10.92h-.17c-1.14-3-2.8-7.69-4.11-10.92L264.63,18.88h-4.19V80h3.93V40.55c0-4.72-.09-8.91-.26-13l.17-.09c1.31,3.41,3.06,7.69,4.72,12l10.22,25.34h4l10.14-25.34c1.75-4.28,3.5-8.56,4.81-12l.17.09c-.17,4.11-.35,8.3-.35,13V80h4V18.88Zm22.28,57.5V50.77h22.11V47.1H320.12V22.55h23.77V18.88h-27.7V80h28.31V76.37Z"/><path class="cls-2" d="M336.81,117.16l.24-3.25,0-.49h-1.42l-.14-1.17V114l.21,3.14h0l.06.42h.93l.07-.42ZM173.4,121.49h-1.67l1.67.16v.27h-.24l.24.07v.37l0,0h-.83l.72.11-.12.12H173v.12l-2.13-.13h.58l1.55.26v.06l-.21,0v.32h-.85l.85.09v.19l-2.13-.29,1.89.4v.47h-.21v0l-.39-.06.39.12v.25l-.39-.15a.31.31,0,0,0,.14.12l.14.06.12,0v.26l-2.07-.47,2.07.61v.42l-.25.32-2.92-.95,1.28.61h.21a.41.41,0,0,1,.2,0l.2.18a2.27,2.27,0,0,1,.85.14l.13,0-.36.47-1.23-.38,1.15.48-.15.2.05,0-.15.34-.08,0,.08,0-.11.25-.31.2-.67-.48v.18l.6.34-.34.23-.26-.08h.18l.08.08-.17.12h-.09v.06l-.23.15-.26-.23.26.23-.67.45-.38-.46.34.48-1.14.76h.28a1.92,1.92,0,0,1-.37,0,.2.2,0,0,1-.12.18l-.09,0,.21.4a.65.65,0,0,0,.15-.12l.15-.14.15-.14.21-.21v0H169l-1,1.24-.49-.81h-.21a1.75,1.75,0,0,1,.4.5.89.89,0,0,0,.21.32v.07h-.31l-.09-.07a.23.23,0,0,0,0-.09.2.2,0,0,0-.18-.12.59.59,0,0,0-.09-.31.59.59,0,0,1-.09-.31,2.6,2.6,0,0,0,.17.47l.2.41h-.59l-.37.32-.28-.13s0-.05,0-.08v.08l-.47-.22-.54-2.14H165l.67,2.1-.55-.26q-.07-.36-.12-.74.05.38.09.73l-.35-.17L165,131h-.59l-.06-.23q0,.12,0,.23H164l-.32-1.69L164,131h-.63l0,.18h-.64l-.13-.87v.87h-.37l.15-3v0l-.15,3h-.33l-.13-.87-.11.87h-.29l.22-2.36v-.18l-.22,2.55h-.22l-.34-.29.11-.79-.19.73-.52-.44-.23.92h0l.12-.53-.12.53-.23-.23.16-.76-.25.66-.19-.19h-.09l.54-2-.84,2h-.2v0q.06-.2.15-.44l-.17.47h-.14l-.2-.13-.08,0,0-.07.17-.44-.2.51-.26-.13.46-1-.56.94-.09,0h-.31l.26-.47-.26.47h-.07l-.37-.47.69-1.28-.83,1.1-.21-.26.64-.84-.68.78-.14-.17-.33.44-.36-.24.5-.62-.5.62-.06,0-.13-.12L157,128l-1.18,1.18-.22-.19,1-1-1.08.93-.16-.14,0,0-.09-.09.31-.34-.37.28-.2-.2.14-.08-.14.08-.07-.07h0l-.12-.12.15-.1-.15.1-.23-.23,1.38-.94-1.44.88-.17-.17.6-.44-.67.21v-.37l1.28-.72-1.28.64v-.35l1.06-.5-1.06.37v-.19l-.72.36-.21-.21.7-.34-.7.34-.08-.08-.26-.48.22-.08q.3-.12.61-.27l-.63.26-.21.07v-.45l1.06-.38-1.06.38v-.13l-.31.08-.13-.32,2.12-.79-2.25.45,0-.08v-.1l.18-.09-.21,0-.15-.27h0l.24,0,.87-.14,1-.17H154q-.49,0-1,0t-.88.09H152l-.16-.3v-.09l.06,0h-.06v-.29l1.73-.29h-1.73v-1.32l-.43.37v-.48l.27-.07-.27.05v-.52l1.28-.14-1.28.13v-.08l-.18,0v-1h0v-.4h0v-1.26h.18v0h0v-.61h0v-.44h.21v-.11l2.13.15-2.13-.35v-.32h.27l-.27-.09v0l.21,0v-.37l.24,0v-.28l.61.08-.61-.09v-.35l.21,0v-.21h-.21v-.45l.21.18H154l-1.89-.18v-.3l.61.09v-.06l3.17.73H157l-4.24-.79v-.36l.21.05v-.17l2.56.39-2.56-.52V114l.4.14V114l1.55.38h.79l-2.35-.75v-.1l.21.06v-.34l.24.06-.24-.1v-.28l1.95.56q-1-.31-1.66-.58l-.29-.12v-.25l.2-.2,1.14.35-.94-.56.23-.23,2.12,1.18a.74.74,0,0,0-.3-.2.75.75,0,0,1-.31-.2,11.91,11.91,0,0,0-1.07-.82l-.23-.16.07-.07.78.43V112l.88.7c0-.1,0-.16,0-.18a.32.32,0,0,0-.18,0q-.34-.29-.67-.54v-.22l.46.42v-.33l.21.21-.21-.23v-.49l1.09,1V112l-1.09-.92v-.77l1.89,2,.21.4-.4-.67-1.09-1.35.37-.37.72,1.11.18.4-.18-1-.48-.74.22-.22.33-.15.11.2.41.78.47.93v.21l.4.49q-.15,0-.17-.17t0-.32l-1.19-2.13.52-.24v-.17h.08l.16.25a1.12,1.12,0,0,1-.16-.25h.57l.2.65-.09-.65h.69v0h0v-.4h.21v0h.67v.25a.84.84,0,0,1,.17.2.79.79,0,0,1,0,.2l-.08-.65h.28v0h0v-.21h.88v.25a1.7,1.7,0,0,1,.17.7q0,.4,0,.7v-1.66h.43v0h.32l.08.47v-.47H163l-.13,2.14V111l.14-2.36h1l-.11.65.11-.65h.61l-.11.86.25-.82.17.17h.55l-.3,1.26q.15-.61.27-1.07l0-.19h0l.43.16-.15.49L166,109l.6.22h.18l0,0-.09.21.09-.21.2.3-.29.71.38-.57v0h.4v.17a.61.61,0,0,0-.18.3,1.89,1.89,0,0,0,0,.37,4.6,4.6,0,0,1,.24-.65h.72l-.75,1.47.92-1.36.11.11,0,.19-.46.66.49-.51,0,.1.66-.05-1.77,2.31,2.11-1.58.14.33.08.11-.84,1,1-.86.24.27-.59.59.62-.55.37.42-1.61,2,2.08-1.48.23.26-.43.33.48-.27.13.15.45-.32v.32l-1.28,1,1.28-.87v.41l-3.38,2.35,1.89-.82,1.49-.7v.36l-.21.07.21,0v.3l.85-.4v.27l-3.2,1.15H170l2.74-1v.33l-.24.11.24-.05v.17l.1.09-2.23.62,2.41-.46.14.12v.07l-.88.27h.88v.29l-2.35.6,2.35-.34v.46l-1.77.27,1.77-.15v.17h.18v.61l-.67.25q.44-.16.67-.22v.4h0v1.22h0v.67h-1.06l1.06.12v.28Zm161.46-8.07h-.95v0h-.31l-.12-.75v.75h-.73l-.16-1.17v1.17h-.36l-.1-.75v.75h-.43v.2h0v.21h-1.83l1.83.15v.14h-.18v.11h0v.67h0v.35l-1.16.14h1.16v.4h0v.49h0v.21H331v.24h.48v.58l-.27.07h.27v.42h.67l.13,1.59v-1.59h1v0h.18v0h1.09v0h.19v-.21h.49l0-.43h0L335,114l-.18-1.34v.75Zm-275.62,7.7.83,0v0H58.72l4.7.21v.21H59.85v0H59v.19h0v.24H57.62a6.35,6.35,0,0,0,.78.12l.59.06v.85L57.62,123l1.37.17v.68h.19v.47H59v-.4h.21v-.07H61l.16,1.35V123.8h.06V124h.22v.74l.09-.74h1v0h.29l.17,1v-1h.88v0h.33l.1.53v-1.16h-.06v-.25l1.61-.17H64.25v-.24h0v-.28l1.4-.15h-1.4v-.59h-.83v-.28h0v-.05l.83,0v-.16H64v0h0V121h-.43v-.5h0v-.27h0v-.4h0v-.6h-.46v-.61l1.37-.16H63.15v-.21h0v-.46h0v-.6h-.21v-.43h-1.1v-.07H62v-.21h-.43V116h0v-.21h.7v-.21h-.49v.21h-.4V116h0v.46h.18v.21h-.88l.08.07h-.27v.43h-.21v.17h-.73l.73.1v.33h0v.29h-.21v.46h-.24v.6h0v.32h-.21v.6h0v.67h0V121h-.43v.11Zm47.07,4.79,0,.36h-.2v0h-.48v0h-.21V127l-.1-.74h-.57v0h-.06v.27h-.27v0a5.92,5.92,0,0,0-.09.7q0,.4,0,.79v-1.53h-.61v0h-.49v0H103v.92l-.16-.92h-.73v-.91h0v-.4h0v-.52l-2.89-.15h2.89v-.3H102l-.56-.06a5.57,5.57,0,0,1-.72-.12h1.34V123h0v-.46h0v-.21h0v-.2h.61v-1l.19,1h.3v0h.37l.12-.47v.47h.68l.18-1.57v1.57h1.37v-.68l.21,1.28.18,2.93v.27Zm.76-3.39,0-.41h2.05l.11-.68v.68h.21V119.2l.18,1.56.19,1.36h.79v-2.73l.18,1.37v.88l.09.47h.66l.34-3.61.24,3.61h.71V121l.21-1.77v2.91h.45v-4.32h-.24v0h-.43v0h-1.16v0h-.46v0h-1.1v0H109v.53l-.11-.53h-.56v0h-.82l.05-.63h-.11l.21-2.93h.13l.06-.81h.26l0,.21h2.22v0h.46v0h.58l.12-.29v.29h.06v-.21h.13v-1.63q0,.34,0,.67a2.09,2.09,0,0,0,.18.67v.29h.27v0h.3l.1-.75v.75h.27v0h.43v0h.85v-.47a.46.46,0,0,0,.14.3h0l.35-4.65h-.22v0H114l-.1.74v-.74h-.54l-.13,1.41v-1.41h-.89v0h-.49v0H111v0h-.4v0h-2v.53h-.21v1.1l-.46,2.23-.18-3.85H107v0h-.21v0h-.4v-.18h-.27v0h-.49v0h-.21v.71l-.1-.71H105v0h-.43v0h-.24v.22l-.07-.22h-.54v0h-.27v.71l-.11-.71h-.59v2.27l-.17-2.27h-.71v0h-.67v0h-.21v0l-.48,0H95.79v.07l2.53.15H95.79v.21h.48v.27h-.48v.67h0v.43h0v.46h0v.43h2.53l-2.53.22v.24h0v.88h0v.49h0v.34l-.28.06h0l-.13,0V114h.67v.21H94.9v.49h.27v.46h.21v.43h0v.46h0v.43h-.21v.67l2-.21-2,.21v.21h0v.46h.21V118h-.21v.27h0v.4h.21V119h0a.27.27,0,0,1,0,.12.21.21,0,0,1-.18.09.14.14,0,0,0,.09.15.27.27,0,0,0,.12,0h0v.49h3.33l-3.33.21v.18h1.07v.27H95.39V121h0q0,.15-.11.09t-.11.09l.21.27h0v.43h0v.24h.4v.21h1.56l-2,.21v.18h-.21V123H94.9a.27.27,0,0,0,0,.12q0,.09.24.09h.21v.21l2.44.27H95.18v.18l2,.21H95.39v.21h2.44a7.62,7.62,0,0,1-1,.17l-.78.08-.7,0v.18h0v.45l.4-.3v.34h0v.4h0V126l1.83.16H95.79v.67h0v.88h0v.4h0v.4l.94-.13h-.27a1.76,1.76,0,0,1-.52.18l-.15,0v.23h2l-2,.21v.67h0v.27h2l-2,.14v.71h0v.29h.4v.14h.09l-.09,0v.05h6.52v0h1v-1.36l.13,1.36h.27v0h1l.18-1.17v1.17h.18v-1.36l.15,1.36h1.28v-.21h.61v0h.27l.16-1.84v1.84h.46v0h1.29v.49h.27v-1.45l.17,1.45h.25v-1a4.74,4.74,0,0,0,0,.58,1.7,1.7,0,0,0,.08.38h.34v0h.09v-.27h.34v0h.27v-.68l.1.68h.3v0h.49v0h.44v0H113l.12.64.31-.4v-2.3l.19,2.06h.57v-.21h.61v0h.06v-4.14h-.21v-.4h-.27v0h-.46v2l-.18-2h-.31v0h-.4v0h-.89v0h-.27v.25l-.08-.25h-.59v0h-.43v0h-.18v.25l-.14-.25h-.35v0h-.88v.65l-.11-.65H108v-.27h-.27v0H107l0,0v-.85h-.21v.18l.21-3.11Zm-13.53-8.89-2.25.8,3.33-.85.21.18-1.31.46,1.31-.46V114l-.92.4.7-.21v.46l-3.33.85-.7.27L95,114.68v.21l-2,.46,2.23-.46v.46h.18v.18l-3.05.73q.82-.21,1.54-.34a8.16,8.16,0,0,1,.87-.12l.17,0a.43.43,0,0,1,0,.17h.73v.28h-.27l.27.18-3.33.64h-.27a.41.41,0,0,0-.2,0l-.26.24h.27l1.31-.31q.67-.15,1.22-.24t1.25-.18v.46h0v.27l-3.33.4h3.51V118h-.46v.21h.46v.24l-3.33.21,3.14.18h.18v.27H93.5a12.89,12.89,0,0,0,1.62.17l.79,0v.24h-2l2,.21V120h0l-.18.46-.92-.18.44.09.35.06a1.57,1.57,0,0,0,.3,0v.27H95.5l-.88,0-1.17-.09-1.31-.15,3.78.67v.24l-5.06-.46,5.06,1.1-.18.21-5.16-.85,4.88,1.56v.4L90.57,122l4.7,2v.18l-4.88-1.77L95,124.84l-.18.27-4.88-2.23.24.21.85.46v-.27l.46.27,3.33,1.56v.4l-.92-.4.7.4v.24l-.7-.24.46.24V126l-.85-.46.61.65-.31.23-1.39-.88,1.25,1-.18.13-.08.09-.17-.12.17.12-.21.24-1.06-.75.93.89-.2.23-.46-.46.39.53-.24.27-.61-.61.61.61-.18.21.05.07,0,0-.9-.94.9.94-.46.39-.25-.23.19.28,0,0h-.36l-.14.2-.05-.06,0,.08-.28.43h-.29l-.25.29-.11-.16.11.16,0,0-.33.18-.19-.38.19.38-.29.15h0l-.07-.07,0,.07h-.46l0-.07v.07h-.4v.46h-.42l-.1-.32.08.32h-.64l0,.1-.36.36h-.76l-.55-2.09.33,2.09h-.63l0,.18h-.06l-.34-1.81.21,1.81h-.33l-.06-.26v.26h-.24v0H84.2v0h-.67v0H83.1v0h-.51l-.16-1.81v1.81h-.24v0h-.37v.27h-.09v0h-.4v0H81l-.15-1.63v1.63H79.8v.17l-6.5-.16v0H69.43l4-.46v-.43h-.21v-.21h0v-.46H73v-.49h0V129h-.21v-.4h-.27v-.49l-.88.21.88-.21v-.21h-.18v-.24a1.15,1.15,0,0,1-.27,0l-.3-.06a1.36,1.36,0,0,1-.34-.12h.92v-.21H68.79l3.36-.21v-.24l-2.72-.21h2.5v-.21l-.5,0H71v0l-1.83-.14H71v0h-.21v-.63h0v-.27h0v-.36l-3.38.18,3.38-.38v-.3h-.46v-.07a11.26,11.26,0,0,1-1.15.05l.82-.14.33-.06V124h-.21v-.85h0v0h-.21v-.43h-.18v-.2H67.9l1.86-.15V122h-.27v-.2h-.21v-.42h0v-.92h-.21v-.21h-.24v-.42h0v-.07H68.6v-.14h-.7l.7-.13v-.19h-.21v-.17h0v-.28l-.27.1.27-.1v-.39h0v-.25h-.21v-.43h-.24v-.2h-.3a1.14,1.14,0,0,1,.3-.16v-.58h-.21v-.16l-.09,0,.09-.06v-.43h0v-.12l-.52-.52H67v-.24h0v-.4h0v-.07h-.18v-.14h0v-.59l-.21,0v-.64l-1.16-.12h1.16v0h-.49v-.17H64.76q.49-.09.95-.14l.42,0v-.32h-.21v-.88h-.18v-.43h-.27v0h0v-.18h-.27l.27,0v-.38h0v-.53H65v-.67h-.18v-.17H63.63l1.22-.11V109l-.27,0v-.56l-3,.18-3-.18v.42h-.21v.43h-.18v.23l.06,0h-.06v.21h0v.42H58V111h-.27v.07h1.43a13.23,13.23,0,0,0-1.43.07v.74h-.43V112h0v.67h0v.2h-.57l.15.6,1.12.08h-1.1l0,.2h-.53v.46h0v.45l.09,0h-.09v.57l.27,0h-.27v0h-.24v.25h0v.34l.73.09H55.77v.81h-.21v.09h.15a8.79,8.79,0,0,1,1.43.21H55.55v.17h-.24v.37l.51.1-.51-.08V118H55.1v.88h-.21v.43h-.21v.27h-.46v.47h0v.8H54V121l3.41.21H54v.43h0v.2h-.27v.41h0l.12,0-.16,0-.32.09v1h-.21v.24h-.49v1.59h-.21v.21h-.24v.68l.06,0h-.06v.17H52v.47h0v.2h-.21v.88h-.46v.1l.94.15h-.94v1l-.61-.07v.2h-.43v.27h-.46a.2.2,0,0,0,.12.18.06.06,0,1,1,0,.06.2.2,0,0,0-.12.18H50l.4,0,.43.08a2.91,2.91,0,0,1,.49.14H50v.21h-.46v.21H50v.21h-.24V131h-.43v.29h6.74v-.24h.21v-.5h0v-.14h.21v-.22l-.27-.07h.27v-.84h.19v-.1h.09v-.6h.4v-.27H55.37l1.83-.19v-.41h.22v0h1.1v0h2.44v0h.21v-.29l.07.29h.6v0h.34q.06-.27.1-.61a6.09,6.09,0,0,0,0-.78v1.39h.4v0H63v0h.43v0h.32l.13-.72v.72h.88v0h1.32v.38H69l-2.92.18v.11h.18v.2h1l-1,.12V129h0v.1h.21v.38h0v.21h1l-1,.13v.37h.21v.17h.94l-.61.07h0l0,.6h0l0,.29h6.15V131h1.31l1.34-.18h1.77l-4.7-.21v-.46h.27l2.65-.24,2-.21H73.12v-.18l1.56-.27H72.85v-.43h0v-.4h0v-.27L74,128H72.85v-.27h.27v-.64h-.27a.23.23,0,0,1,0-.09.33.33,0,0,1,.24-.09h0v-.27h0v-.34h.34v-.05h0v-.28h.27v-1.13l2.25-.14H73.74v-.27h0v-.53l.7-.11h-.7v-.18h0v-.46h0v-.33l.94-.13h-.94v-.3l5.6-.77V122l-4.27.44,4.54.19v.27H77.3l2.31.17v.86h.18v.1h0v.18h0v.92h-.3l.3.06v1h.8v.92l.16-.92h.29v0h.46v0h.21v0h.46v0h.31l.15,1.38v-1.38h.27l.19,1.38v-1.38h.35l.08.28v-.28h.21v0h.46v0h.37l.08.28v-.28h.29l.11.92-.11-.92h.29l.05.13.07-.05.12.85-.09-.87.41-.31.14.33-.06-.38.83-.62.55,1-.55-1,.13-.1.21-.27.18-.14,1.12,1.51-1-1.59.35-.26v0l.48.34-.46-.46.66-.44-.12-.3,0,0,.81.77-.79-.79.35-.35,1.54,1-1.52-1.2.31-.41v-.67l1.22.45L89,121.63l.27-.24v-.09l.7.23-.7-.23v-.36l1.8.16-1.8-.3v-.45l2,.35-2-.35v-.51l.48.07,1.13.15,1.28.18h0a1,1,0,0,0,0-.24s-.07,0-.17,0l-2.71-.15v-1.13h0v-.15l-.27-.46v-.21l-.18-.19v-.41l.18,0,.64-.15a8,8,0,0,1,.79-.15h-.21a5.11,5.11,0,0,0-1.1.09l-.3.06v-1.2h-.46v0h0v-.66l0,0h0v-.64l-.64.23v-.2h-.46v0l1.4-1.4.85-.64-2.25,1.89v-.07h-.61l-.22-.25-.28-.32-.14-.06.17-.33v-.21l-.21.46,0,.06-.5-.2h-.5l-.27-.27h-.06l.08-.23-.08.23H84l.17-1-.17,1h-.27l0-.18h-.08l-.11-.78V113h-.29q0-.27-.05-.59t-.09-.82V113h-.35l-.1-.78V113h-.21v-1.42L82.26,113H81.6l-.08-.5v.5h-.16v.18h0v-.44a13.52,13.52,0,0,0-.24-2v2.45h-.2q0-.11,0-.23,0-.4-.09-.9t-.15-1.11v2.24h-.8v.6h0v.92h0v1.13h0v.9l-1.61.2H79.8v.18h0v.46h0v.28l-1.15.18H79.8v.46h0v.07h-.18v.32h0v.76l-1.61.15h1.61v.09l-.27,0v.18l-1.15.16h1.15v.26l-2.25.2h2.25v.25l-3.57.57,3.57-.16v.17l-5.6.22v-.36l3.81-.52H73.46v-.54l2.71-.37-2.71.22v-.71l1-.15-1,.15v-.33h0v-.54l.51-.13-.51.1v-.34h0v-.31l1-.15h-1v-.21h0v-.46h0v-.26l1.61-.2H73.46v-.19h.27v-.39L74,116h-.24v-.18h0v-.07h.2l0-.64,4.42-.2-2.62-.46H74.22l-.19,0,0-.6-.34-.07v-.29h-.27v-1l2.07-.24h-1.8V112l1.34-.15H73.74v-.88h0v-.46h0v-.85h0v-.73h0v-.37h0v-.28h6.49v.46a1.64,1.64,0,0,0,.09-.32l0-.15h.25v.47a.33.33,0,0,1,.24.09.24.24,0,0,1,0,.09v-.65h.18v0h.5l.17,2v-1.92l.1.08H82v0h.46v0h.26l.14,1.84v-1.84h.34l0,.25q0,.43.06.95t0,1.1q0-.58,0-1.1t.09-.95l0-.25h.34l.15,3,.23-3h.23v2.51l.27-.67h-.27l.2-1.84h.25v.28l.07-.28h.25l-.31,1.38.21-.46.14-.92h.47l.12-.08a4.53,4.53,0,0,0,0,.55,4.1,4.1,0,0,0,.15-.62l.56.22L86.15,110q.27-.79.51-1.35l.28.24q-.1.33-.22.72t-.32,1.1a1.12,1.12,0,0,0-.21.27.27.27,0,0,0,0,.12L87,109l.33.28-.29,1,.44-.79,0-.05.14.12v-.4l.13-.26h.4l-1.14,2.24,1.36-2.24h.48L89,109l-1,2,1.16-1.87.26.19-.59,1,.68-.94.46.34-.47.81.53-.77.53.4-.81.83.81-.83.26.19v-.46l0,0,.24.32L89.47,112l1.1-.92.74-.7.19.25-.66.73.73-.64.12.16.1-.09.08.08L90.57,112,91.95,111l.84.84-2.22,1.32h-.18l2.48-1.24.51.51-.79.55.86-.48.08.08v.36l-3,1.14-.18.18.88-.18L93.53,113v.16h0v.51Zm-2.69-3.84,0-.05v.1l0,0ZM50,128.9l-.89-.1v-.11h0v-.52L47.43,128h1.64v-.27l-1.34-.19h1.34v-.22l-1.86-.21h1.86v-.15h0v-.49h0V126h0v-.22l-2-.21h2v-.43h0v-.21h-.76l.76-.11v-.6l.28,0V124l-3.14-.12,3.14-.23v-.26h-3l3-.2v-.5h0v-.25h-.28v-.2h0v-.43h0v-.24l-.91-.13h.91v-.27H47.22l1.86-.14v-.56l-1.34-.19h1.34v-.23l-1.64-.2h1.64v-.29l-1.64-.2h1.64v-.18h-.76l.76-.13v-.29H47.22l1.86-.11v-.31h0v-.46h0v-.64h-2l2-.19v-.24h0v-.43h0v-.31H47.74l1.34-.13v-.24h0v-.43h0V115h-.16a4.94,4.94,0,0,1-.59-.08h.76v-.31H47.43l1.64-.11v-.32h0v-.64H46.21l2.86-.19v-.24h-.33l.33-.06v-.39h0v-.23l-3.32-.23,3.32-.14v-.42l-2,.14,2-.14v-.78h0v-.22l-2-.21h2v-.23L47.43,110h1.64v-.34l-.76-.12h.76v-.27h0v-.43h0v-.18h0v-.1H39.9v.1h0v.82h-.18v.07h0v.51l1.37.13H39.72v.46h0v.49l1.64.12-1.92.2v.26h0v.37l-.15,0v0h0v.2h-.21v.7h-.21v.23a8.71,8.71,0,0,1,1.12.21H38.72l-.07.06v1h0v.94h-.24v.15h-.21v.07h0V116l.48.08h-.48v.31h0v.43h0V117h-.27v.09l.91.13h-.91v.21h-.15v.07l1.06.15H37.77v.63h-.27v0h0v.33l1,.09h-1V119h0v.63h-.15v.1h0v.46h0v.31l.7.12h-.7v.2H37l2.15.22-2.81.18v.27l3.26.21h-.73a7.17,7.17,0,0,1-1.24.14l-1.14,0h-.67v-.15h-.15v-.49h0V121h0v-.22h-.89v-.2h0v-.25h-.15v-.63h0v-.28h-.27v-.63h-.73l.73-.08v-.63h-.15v-.17h-.58l.58-.09v-.34h-.27v-.21h-.64l.64-.1v-.61h-.24v-.63h-.91a5.75,5.75,0,0,0,.91-.06v-.65h-.24v-.63H31.45l1.95-.12v-.32h-.18v-1.06h0v-.4l-.06-.06h0l-.18-.18H31.45l1.35-.17-.08-.08h-.09v-.63H30.71a14.44,14.44,0,0,1,1.71-.24h.21v-.45h-.27v-.17H31.17l1.19-.16v-.3h-.24v-.42h0v-.49h-.67l.67-.08V109H31.9v-.17h-.3l.3,0v-.23H29.31v-.25l-.54.07H26.35l3-.13V108l-6.55.77v0h2.07l-2.07.21v.22h0v.63h-.18v.28h0v.24l2.25.22H22.57V112h1.77l-1.77.14v.5h0v1.07h0v.46h0v.43h0V115h1.77l-1.77.2v.25h4l-2.26.24-1.59.12h0v.56l3.84.13-2,.27H22.76v1.37h0v1h0v.49h0v.46h0v.15h0v.43h0v.46h2.53l-2.53.24v.74l.54.09h-.54v.32H23v.14h0v.82l.48.09h1.34l2.69.43L23,123.92v.18l1.64.13H23v.43l4-.19h.49l-4.51.2v.48h0v.27h.76l-.76.07v.29h-.24V126h2.07l-2.07.23v.25l.68.09.9.15H22.76v.21h1.43l-1.43.11v.32h1.43l-1.43.11v.32h1.58l-1.58.13v.33h0v.64h0v.21h1.43l-1.43.15v.37H23l-.27,0V130h3l-3,.2v.26H23l-.27.07v.36h4.48l-3.45.5,3.33-.13,1.31-.23v-.35h-3l3-.17V130l-2.25.18,2.25-.34v-.24H27l1.4-.2v-.32h0v-.43H27l1.4-.17v-.26h-.3l.3-.08v-.38h0v-.27H27l1.4-.11v-.32H27l1.4-.11v-.26h0v-.43H26.17l2.25-.24v-.22h0v-.27h-.3l.3-.05v-.38h0v-.46h0v-.6h.15V124l-.7-.08h.7v-.27h0v-.92h-.45a3,3,0,0,1,.41-.17h0v-.79a1.12,1.12,0,0,1-.27-.07h.27v-.21h0V121h0v-.7h0V120h-.09l-.76-.11a9,9,0,0,0-.95,0h1.8v-.17h.61a5.55,5.55,0,0,1-.76-.15,7.32,7.32,0,0,0-1.65-.15h2.41v-.18L26.6,119h1.07l1.37.24v-.58l.15-.43H29V117h.15v-.46H29v-.15h.15v.43h0v.43h.3v.18h0v.24h0v.52h.15v.15h1.07l-1.07.27v.15h.27V119h0v.43h0v.31h1v.6h0v.29h.18v.14h.3l-.3.08v.38h0v0h.18v.43h.27v.17h.7l-.7.12v.31h0v.46h0v.1h.18V123l2.71.14H31.79v.24h.73a4.05,4.05,0,0,1,.55,0,.5.5,0,0,1,.34.18H31.79v.26h.27v.07l1.76.1H32.06v.64h.67l-.67.13V125h.15v.17h1l-1,.16v.27h0v.29h.27V126h0v.46h0v0h.18v.23h0v.64h.58l-.58.07v.21h.46v.14h0v.46h0v.43h0v.21h.12l-.12,0v.1h.21v.58h.24v.6h.24l-.24.06v.26h.27v.11h0v.78h4.2v-.7h.43v-.5h0V129h.41l0,0v-.33h0v-1.16h0v-.14h.21v-.44H38l1.12-.12v-.32h.21V126l-.09,0h.09v-.14h.21v-.44h0v-.17h.27v-.56h0v-.14H40v-.07h0v-.42H38.68L40,124v-.6l.27,0V123h.18v-.12l-2.89-.38,2.89-.23v-.23l-.71-.08a7.92,7.92,0,0,1-.93-.17l1,0,.64,0v-.32H39.1l1.37-.16v-.08l.43-.06v-.22l-2.07-.21,2.07-.11V120l-1.12-.16h1.34v-.18H39.78l1.34-.17v-.24h1v-.07h0v-.43h0v-.15h0v-.43h.27v-.31h0v-.46H40.2l2.38-.18V117h0v-.46h.3v.27l3.33.18H43v.24l2,.18H42.89v.24h2l-2,.21v.31h0v.43h0V119h0v.24l2.38.18H43.5v.31h.91l-.91.11v.35h0v.43h0V121h0v.27l1.34.19H43.5v.21h0v.43h0v.43h0v.22l3.72.24-3.72.16v.48h0v.32l1.06.11-1.06-.11v.29h0v.31l2.25.15H43.5V125l.91.14H43.5v.27h1.77l-1.77.11v.31h1.77L43.5,126v.34h1.34l-1.34.1v.32h0v.37h0v.28h2.25l-2.25.13v.3h0v.46h0v.36l.24.07H43.5v.21h1.77l-1.77.16v.27h0v.46h0v.27l1.77.16H43.5v.27l.38,0a15.39,15.39,0,0,0,1.88.11H43.5v.49h0v.28h5.57v-.1h-2l1.08-.09.93-.06.88,0v-.27H46.79l3.33-.21v-.21h-1.8q.67-.12,1.16-.18l.49,0V130h0v-.34H46.79l3.17-.31v-.21h0v-.22Zm57-11.32h-.21v0h-.49v0h-.09v-.42h-.08v0l-.21-3.14v-1.77l.23,1.17H107v0h.43l-.06.6h.09l-.27,3.14h-.15l0,.42Zm-1.45,0h-.4v.21H105v0h-1.09v0h-.18v0h-1v1.59l-.13-1.59h-.67v-.42h-.27l.27-.07v-.58h-.48v-.24h.48v-.21h0v-.49h0v-.4h-1.16l1.16-.14v-.35h0v-.67h0v-.11h.18V114l-1.83-.15h1.83v-.21h0v-.2h.43v-.75l.1.75H103v-1.17l.16,1.17h.73v-.75l.12.75h.31v0H105v0h.27v-.75l.18,1.34.21,3.14h-.11l0,.42Zm125.26-4.16-.06.81h-.06l-.21,2.93h0l0,.63h.89v0h.56l.11.53v-.53h1.1v0h1.1v0h.46v0h1.16v0h.43v0h.24v4.34h-.45V119.2l-.21,1.77v1.16h-.71l-.24-3.63-.34,3.63h-.66l-.1-.49v-.88l-.18-1.37v2.75h-.78l-.19-1.37-.18-1.56v2.93h-.21v-.7l-.12.7h-.55v0h-.49v0h-.18v0h-.43v0H230l-.3,4.14H230v0l0,0h.65v0H231v.27h1.18l.11.65v-.65h.88v0h.35l.14.25v-.25h.18v0h.43v0h.59l.08.25v-.25h.27v0h.88v0h.4v0h.31l.18,2v-2h.46v0h.27v.4h.83v4.35h5.61v-.24h.21v-.5h0v-.14h.21v-.22l-.27-.07h.27v-.84h.19v-.1h.09v-.6h.4v-.27h-1.83l1.83-.19v-.41h.22v0h1.1v0H249v0h.21v-.29l.07.29h.6v0h.34q.06-.27.1-.61a6,6,0,0,0,0-.78v1.39h.4v0H251v0h.43v0h.32l.13-.72v.72h.88v0h1.32v.38H257l-2.92.18v.11h.18v.2h1l-1,.12V129h0v.1h.21v.38h0v.21h1l-1,.13v.37h.21v.17h.94l-.65.08V131h0v.29h5.66v-.07h-3.2l3.2-.36v-.56h-.21v-.63h0V129h0v-.4h0v-.46l-.76.18.76-.18v-.24h-.06v-.24a1.15,1.15,0,0,1-.28,0l-.3-.06a1.36,1.36,0,0,1-.34-.12h.92v-.21h-3.57l3.36-.21v-.24l-2.72-.21H260v-.21l-2.72-.21h2.93v-.15h.27v.4h0l-.27-.18h.27v-.21h0v-.18h-.27l.27,0v-1l-.12.05a.7.7,0,0,0-.18.12v.79h-.46v-.21h-.21v-.27h0v-.4l-4,.21,3.81-.43v-.49l-.58.12a9.35,9.35,0,0,1-1.46.09l.82-.14.61-.12h-.49v-.85h0v0H258v-.43h-.18v-.2h-1.86l1.86-.15V122h-.27v-.2h-.21v-.42h0v-.92h-.21v-.21h-.24v-.42h0v-.07h-.21v-.14h-.7l.7-.13v-.19h-.21v-.17h0v-.28l-.27.1.27-.1v-.39h0v-.25h-.21v-.43H256v-.2h-.3a1.15,1.15,0,0,1,.3-.16v-.58h-.21v-.16l-.09,0,.09-.06v-.43h0v-.12l-.52-.52H255v-.24h0v-.4h0v-.07h-.18v-.14h0v-.59l-.21,0v-.64l-1.15-.12h1.15v0h-.49v-.17h-1.37q.49-.09.95-.14l.42,0v-.32h-.21v-.88h-.18v-.43h-.27v0h0v-.18h-.27l.27,0v-.38h0v-.53h-.43v-.67h-.18v-.17h-1.22l1.22-.11V109l-.27,0v-.56l-3,.18-3-.18v.42h-.21v.43h-.18v.23l.06,0h-.06v.21h0v.42h-.21V111h-.27v.07h1.43a13.24,13.24,0,0,0-1.43.07v.74h-.43V112h0v.67h0v.2h-.57l.15.6,1.12.08h-1.1l0,.2h-.53v.46h0v.45l.09,0h-.09v.57l.27,0h-.27v0h-.24v.25h0v.34l.73.09h-1.16v.81h-.21v.09h.15a8.78,8.78,0,0,1,1.43.21h-1.58v.17h-.24v.37l.51.1-.51-.08V118h-.21v.88h-.21v.43h-.21v.27h-.46v.47h0v.8H242V121l3.41.21H242v.43h0v.2h-.27v.41h0l.12,0-.17,0-.32.09v1h-.21v.24h-.49v1.59h-.21v.21h-.24v.68l.06,0h-.06v.17H240v.47h0v.2h-.83v0h.43v.21h-.64c0,.1,0,.16.09.18a.27.27,0,0,0,.12,0h-.46v.21h.24v.24l1.31.21h-1.56v.21h-.21v.27h0v.21h.21v.4h-.43v.27h-.46a.2.2,0,0,0,.12.18.06.06,0,1,1,0,.06.2.2,0,0,0-.12.18h.24l.4,0,.43.08a2.93,2.93,0,0,1,.49.14h-1.31v.21h-.46v.21h.46v.21h-.24V131h-.43v.29h-.72l-.19-2.06v2.3l-.31.4-.12-.64h-.18v0h-.44v0h-.49v0h-.3l-.1-.68v.68h-.27v0h-.34v.27h-.09v0h-.34a1.69,1.69,0,0,1-.09-.38,4.81,4.81,0,0,1,0-.58v1h-.25l-.17-1.45v1.45h-.27v-.49h-1.29v0h-.46v-1.84l-.16,1.84h-.27v0h-.61v.21h-1.28l-.15-1.36v1.36h-.18v-1.17l-.18,1.17h-1v0h-.27l-.13-1.36v1.36h-1v0H219.2v-.05l.09,0h-.09v-.43h0v-.74l1.64-.11H219.2v-.27h0V129l1.64-.17H219.2v-.31l.27-.12h.27l-.54.07v-.35h0v-.4h0v-.88h0v-.67h1.43L219.2,126v-.36h0v-.4h0v-.49h0v-.22l.68-.07a7.62,7.62,0,0,0,1-.17H219.2v-.21h1l-1-.1v-.29h1.64l-1.64-.18v-.3h0v-.49h0v-.27l1.16-.13H219.2v-.46h0v-.43h0V121h0v-.43h.27v-.27h-.27V120l2.53-.16H219.2v-.49h0V119h0v-1.16h0v-.46h0V117l1-.1-1,.1v-.32h5v-.24l-5,.21v-.64h0v-.46h0v-.43h0v-.46h0V114h0v-.67h0v-.4h0v-.49h0v-.88h0v-.27l2.13-.19H219.2v-.43h0v-.46h0v-.43h0v-.67h.09v-.27h-.09v-.21h2.13l-2.13-.12v-.1h4.28l.48,0v0h.21v0h.67v0h.71l.17,2.27v-2.27h.59l.11.71v-.71h.27v0h.54l.07.22v-.22h.24v0H228v0h.36l.1.71v-.71h.21v0h.49v0h.27v.18h.4v0H230v0h.7l.18,3.85.46-2.23v-1.1h.21v-.53h2v0h.4v0h.88v0h.49v0h.88V110l.13-1.41H237v.74l.1-.74h.36v0h.22l-.35,4.65h0a.46.46,0,0,1-.14-.3v.47h-.85v0h-.43v0h-.27v-.75l-.1.75h-.29v0h-.27v-.29a2.08,2.08,0,0,1-.18-.67q0-.34,0-.67v1.63h-.13v.21h-.06v-.29l-.12.29h-.58v0h-.46v0h-2.22l0-.21ZM260,124v.13h.48V124Zm.48.31H260v.27h.48v-.27Zm-30.35-6.75,0-.42h.08l.27-3.14h0l.06-.6H230v0h-1l-.14-1.17V114l.13,1.85.09,1.71v0h.18v0h.49v0Zm-1.37,0-.15-1.77-.12-1.79-.18-1.34v.75H228v0h-.67v0H227l-.12-.75v.75h-.73l-.16-1.17v1.17h-.36l-.1-.75v.75h-.43v.2h0v.21h-1.83l1.83.15v.14h-.18v.11h0v.67h0v.35l-1.16.14h1.16v.4h0v.49h0v.21h-.48v.24h.48v.58l-.27.07h.27v.42h.67l.13,1.59v-1.59h1v0h.18v0H228v0h.19v-.21Zm.21,4.56h-1.37v-1.59l-.18,1.59h-.28v0h-.4v-.49l-.13.49h-.36v0h-.29l-.2-1v1h-.61v.18h0v.21h0V123h0v.43h0v.46h0v.21h-1.34a5.58,5.58,0,0,0,.72.12l.56.06h.06v.3h-2.89l2.89.15v.52h0v.4h0v.91h.73l.16.92v-.92h.21v0h.49v0h.61v1.53q0-.4,0-.79a5.91,5.91,0,0,1,.09-.7v0h.27v-.27h.06v0h.57l.1.74v-.74h.21v0h.48v-.36h.18v-.27l-.18-2.93-.21-1.28v.7Zm22.52-.75.83,0v-.2h-.21v0h0V121h-.43v-.5h0v-.27h0v-.4h0v-.6h-.46v-.61l1.37-.16h-1.37v-.21h0v-.46h0v-.6H251v-.43h-1.1v-.07h.21v-.21h-.43V116h0v-.21h.7v-.21h-.49v.21h-.4V116h0v.46h.18v.21h-.88l.08.07h-.27v.43h-.21v.17h-.73l.73.1v.33h0v.29h-.21v.46h-.24v.6h0v.32h-.21v.6h0v.67h0V121h-.43v.17h-.51l.51,0h0l4.18.19v.21h-2.09l-2.34-.05v.27h0v.24h-1.37a6.35,6.35,0,0,0,.78.12l.59.06v.85l-1.37-.15,1.37.17v.68h.19v.47H247v-.4h.21v-.07H249l.16,1.35V123.8h.06V124h.22v.74l.09-.74h1v0h.29l.17,1v-1h.88v0h.33l.1.53v-1.16h-.06v-.25l1.61-.17h-1.61v-.24h0v-.28l1.4-.15h-1.4v-.69l-.83.07v-.26h0v0Zm15.1,3.83,0,0,.2-.87h0l0-.18-.5,0H266l-1.19,0-1.32-.06-2.46-.1-.66,0,.11.26h1.89l-.7,0a1.81,1.81,0,0,0-.67.17h-.44l.12.27h0l.72,1.64.27-.08.53,0-.75.23.83,1.89.13-.08.17.2.25-.18-.22.21.2.23h0l0,0,.22.25.41.41v.06l.21.18h0l.3.26h.44l.11.11.1-.14-.09.16.13.13h.06l.17.2.64-.92.4-.46-1,1.46.33.38h.06l.37-.56-.28.56h.75l.23-.56h0l-.15.56h.27l.15-.34.8.8h.35l.09-.32v.21l-.08.1h.71l.19-.8-.05.8h.45l.12-.78v.78h3.87a2.23,2.23,0,0,1-.06-.53l.11.44,0-.09H274l0-.15a.5.5,0,0,1,0,.12v0h.61l.23-.21-.12-.63.2.55.26-.23h.23L275,129.3l-.06-.24.49,1.42h.17v-.21h.3V130h.36l-.05-.07.06.07h.39l.15-.17L276,128.7l.87,1.08.4-.46,0,.06h.35l-.06-.07.1.07h0l.3-.27-.3-.31.29.26h.06l.15-.13h0l-.07-.06-.79-.65,1,.72h0l.21-.24-.09-.07-.55-.43-.64-.49a.91.91,0,0,0-.24-.17l-.21,0,.85.49.79.43.22.11.3-.34-.06,0-.48-.37.65.29h0l0,0h0l.23-.2-2.09-1a.76.76,0,0,1,.42.2l.82.38.73.35.15.08.09-.07.12-.18-1-.55,1.07.4.05-.08v-.19l-1.12-.59,1.18.28.34-.39-1.25-.32-.09,0,1.37.32.35-.4-.42-.13h.53l.16-.18h0l.17-.19.33-.25v-.2h0v-.43h-.2v.37h-.06v-.21l-1.59-.24,1.65-.22v.32h.2v-1.82h-.1v0h.11v-.36H281v-.18l-2.75.93,2.75-.58v-.17h.47v-.82h0l-.24-.18-.18.06h0l.19-.06v-.12h.12l-.17-.17-.16,0v-.13l-1.59.59,1.59-.4v-.05l.16,0-.4-.41h0v0l-.49-.49-.61.34.44-.5-.16-.16-.49.39.49-.39-.15-.15-.45.25-.47-.47-.31.18a7.7,7.7,0,0,1-.7.37l-.18.21.49-.49a4.56,4.56,0,0,1,.49-.43l0,0-.2-.2-.38.29.29-.38-.32-.32-.27.29.21-.34-.05-.05,0-.06-.1-.08-.93,1.13.79-1.24-.14-.11.23-.6,0,.06.84-2.13.5-1.31h0l1.16,0,.08,0v-.25l-.32,0,.23,0v-.24l-1.66.08,1.66-.3v-.21h-1.49l1.41-.23-.4-.57-.83.16.72-.31-.51-.73-.33.09.3-.12-.16-.23,0,0-.06,0-.78.26-1,.29.78-.29.63-.26.34-.14-.29-.55,0,0-1.93.73.15-.08,1.07-.56.5-.26-.14-.13-.14.08.12-.11-.11-.1-.55-.55,0,0-.08.08-.39-.5-.12.12,0,0h0L275.43,111l1.05-1.47-1-.09-.35.39.28-.4-.53-.76-.16.3.12-.36-.44-.63h0l-.85,1.64.48-1.64h-.14l-.07.31.07-.31h-.3l-.21-.18h-.23v0h-1.71v-.22l-.06.28v-.49l-.52.21h-.11v0h-.48l.24,2.72-.14-.66c0-.11,0-.22,0-.33q0-.63-.08-1.14,0-.29,0-.59H270v.13l0-.13h-.27l.14,1.81,0-.14-.1-1.67h-.27l0,0v.1l0-.08-.15.15h-.4l0,.82-.18-.82h-.72v.18h0l.1.31a.94.94,0,0,1-.12-.31h-.19l.09.31h-.23l.11.35-.15-.35h-.36l.33,1.12-.5-1.12h-.3l.21.68-.36-.68h-.25l.21.5-.27-.5h-.27l.31.76a2.16,2.16,0,0,0-.26-.26.16.16,0,0,0-.21-.21v-.27l-.32.32-.07.06.39.71-.46-.64L265,109l0,0a5.88,5.88,0,0,1,.52.78l-.11-.11-.37-.37-.19-.21,0,0-1.58,1.27V111l1.22.72-1.22-.63v.34l-.21-.11v.29l0,0h0v.08l-.27-.14v.2l-.36-.14h0l-.26.26L262,112l-.07.14.53.13a2,2,0,0,1-.35,0l-.19,0v.36l.44.11.9.21.34.09h-.13a4.76,4.76,0,0,1-1-.2h-.27l-.27-.11v.09l-.21.2v.51l1,.16a6.24,6.24,0,0,1-1-.06v.27h0v.63h-.21v.31h1l-1,.11v.76l.05.13.43-.09-.43.09.13.31h.3l-.28.06.21.5.29-.07-.27.12.05.13.16.18v.16l.19-.07-.17.14,0,0-.29.13.72.62.33-.14-.31.15.1.09.58-.4v.18l0,0,0,0v.53l.46-.32-.46.38V119l.24-.24-.16.26h.59l.59.46h.09l.56.3.81-1.26-.69,1.33.35.19.11.12.41-1-.29,1h.28l.7-1.54-.63,1.54h.24l.35-.7-.19.7h.07l.13.11,0-.21,0,.21.09.08h.19l.24.21h.62l.22-.75-.18.75h.39l.34-.75a.69.69,0,0,0-.21.35,2.14,2.14,0,0,0,0,.38h.15l-.07.28h.23v.18h.16a2.11,2.11,0,0,1,.17-.47c0-.14,0-.23.11-.27a.23.23,0,0,0,.11-.21l-.26,1h.32l.22-.47-.12.47h.73s0,0,0-.07l.24,0s0-.07,0-.17l-.19.5h.1v.18h.5l.47-1.63L271,121.5h.13l.84.84.1-.32h.05l.07-.35-.07.35h.28l.25.19.21-.72-.11.8.3.23.33-.85a.27.27,0,0,1,0,.12.25.25,0,0,1-.24.12v.65l.08.06,1,0v.62l.43.37v2.51h-.32l.16.64h-.64l0,.18h-.66l0,.07,0,.2,0-.12,0-.15h-.31l0,.27h-2.85l-.11.65-.12-.1-.06.41v-.46l-.37-.32-.09.5v-.58l-.65-.56h-.39l-.51-.36-1.22-1.22Zm70.82-11.8h.38l0,.21H340v0h.46v0H341l.12-.29v.29h.06v-.21h.13v-1.63q0,.34,0,.67a2.09,2.09,0,0,0,.18.67v.29h.27v0h.3l.1-.75v.75h.27v0h.43v0h.85v-.47a.46.46,0,0,0,.14.3h0l.35-4.65H344v0h-.36l-.1.74v-.74H343l-.13,1.41v-1.41H342v0h-.49v0h-.88v0h-.4v0h-2v.53H338v1.1l-.46,2.23-.18-3.85h-.7v0h-.21v0H336v-.18h-.27v0h-.49v0H335v.71l-.1-.71h-.36v0h-.43v0h-.24v.22l-.07-.22h-.54v0H333v.71l-.11-.71h-.59v2.27l-.17-2.27h-.71v0h-.67v0h-.21v0l-.48,0H325.4v.07l2.53.15H325.4v.21h.48v.27h-.48v.67h0v.43h0v.46h0v.43h2.53l-2.53.22v.24h0v.88h0v.49h0v.4h0V114h.27v.21h-.27v.49h0v.46h0v.43h0v.46h0v.65l5.37-.23v.24H325.4v.36l1.37-.15-1.37.15v.28h0v.46h0v.49h0V119h0v0l.21.18v.18h0v.49h2.71l-2.71.17v.22h.45v.27h-.45V121h0v.46h0v.43h0v.46H327l-1.34.15v.25h0v.49h0v.14h-.21v.11l2,.23h-2.57l0,.19,1.91.21H325v.21h2.44a7.62,7.62,0,0,1-1,.17l-.78.08-.7,0v.18h0v.49h0v.4h-.21v.27l2.44.21h-2.44v.4a1.35,1.35,0,0,0,.2.24.41.41,0,0,0,.2,0h-.4v.4H325v.27h-.21v.21h0v.4h0v.49l1.56-.21h-.27a1.76,1.76,0,0,1-.52.18l-.37,0H325a.27.27,0,0,0-.12,0,.21.21,0,0,0-.09.18h2.65l-2.65.27v.18H325v.43h-.21v.27h2.65l-2.65.18v.67H325V131h-.21a.34.34,0,0,0-.15,0,.2.2,0,0,0-.12.18q.15.18.24.09a.13.13,0,0,0,0-.09v.23h-6.07v-.5h0v-.14h-.21v-.14h1.64l-1.64-.14v-.29h0v-.31l-.21,0v-.12h0v-.26l2.07-.16H318.3v-.46h0v-.14h-.21v-.56h0v-.28l1.4-.15h-1.4v-.26l2.28-.17h-2.28v-.24h0v-.43h0V126h0v-.38l.45-.08h-.67v-1.05h-.21v-.17l.24-.09h-.21l0,0v-.58l-.78.29-.31-.4-.26-.26-.43-.38h0l0-.07,0,.07h-.43v0H315v0h-.09v-.24h-.61v-1l-.13,1h-.3v-1.45l-.15,1.45h-.28v0H313v0h-.7v0h-.41v0h-.26v0h-.46v0h-.43v0h-.21v0H310v-.21h-2.44q.52-.09.95-.14l.76-.08q.37,0,.73,0h.21v-.73H310v-.21h.21V121l.2,1.66h-.82v.17h-.91l.91.13v.8l-2.74.17h2.74v.7h0v.43h0v.46h0V126h0v.21h-2.31l2.31.19v.35l-1.61.15h1.61v.26l-2.74.2h2.74v.43h-2.53l2.53.17v.29l-3.38.18h3.38v.49h0v.46h0v.21h-1.12q.67,0,1.1,0h0V130h-2l2,.18v.25h-1.34l1.34.15V131h-.21v.17h0v.06l-6,.2v-.06h0v-.21h.33l-.33-.16v-.6l1.86-.19h-1.86V130l1.17,0a13.82,13.82,0,0,0,1.85-.21h-3v-3.11h.06v-.24l.27.24,2.47-.24h-2.8V126H306l-2.59-.2v-.26h0v-.46h0v-.64h0v-.21h2.1l-2.1-.21v-.22l-.48-.66v-1.16h0l0-1.59h.78l-.78-.14v-.5h0v-.52h0v-.85h0v-.46h0v-.73h0v-.64h3l-3-.2v-.23h0v-.46h0v-.21h0v-.49h0v-.85h0v-.49h2.46l-2.46-.19v-.23h0v-.49h0v-.43h0v-.67h0v-.3l.67-.12h-.66v-.5l.2,0,.58-.06a6.52,6.52,0,0,0,.76-.12h-1.54v-.21h0v-.28l1.53-.2h-1.53v-.45l2.17-.19h-2v-.21l2.29-.21h-2.4v-.28l2.06-.11,4.83,0v.56h-2.44l2.44-.21v-.27h0v-.08h.3l.19,1.9v-1.9h.31a1.08,1.08,0,0,1,.08.36q0,.35,0,.84v-1.2h.21v0h.46v0h.24v.33q0-.18,0-.33h.41v0h.47l0,.05v-.05H313l.21,3.44-.2-3.43h.24l.17,2.3.17-2.3h0v-.21h.24q0,.3,0,.62t.06.81a6.25,6.25,0,0,0,.12.87v.21a11.71,11.71,0,0,1,.11-1.62q.08-.56.1-.89h.22v1.17l.13-1.07.15.12H315v2.08q.09-.52.17-1l.14-.87,0-.22h.32v0H316l.08,0-.16,2,.29-2,.26.12-.12,1.41.23-1.35.21.1.09-.59h.11l-.21,1,.36-1h.28l-.34,1.6.44-1.54.16.16h.05v0h.43l-.44,1.38.59-1.38h.34l-.07.31.15-.31h.18v.46h.37l-.09.21h.35l0,.07,0-.07h.3l-.12.28.21-.28h.61l-.6,1.2.81-1.12.25.16-.27.35-.56.78q-.32.44-.66,1l1.64-2,.22.22-.09.15.13-.12.3.3-1.31,1.65,1.65-1.52.27.27-.12.12.16-.08.19.19-.56.59.68-.48.17.17-.85.73.61-.44.31-.22.22.22v.07l0,0-.93.58q.46-.3.94-.56l.19.27a3.26,3.26,0,0,1-.71.29h.46a2.68,2.68,0,0,1,.28-.25l.26.36-1.85,1,2-.81.44.61-1.1.48,1.1-.48.18.25-.36.23.41-.16.15.21-3,1.08h.21l1.13-.34,1-.31.75-.2v.23l-2.24.82,2.24-.42v.14h-.1v.49h.1v0l-1.11.17h1.11v.53l-1.11.17h1.11v.46h0v.21h0v.47l-.2.17h-.21v.21h-1.37a3.92,3.92,0,0,1,.49,0,3,3,0,0,1,.46.09,3.24,3.24,0,0,0,.43.09v.27l-3.17-.49,1.86.6v.45l-.24-.06v.09l-.48-.14.48.16v.45l-.37-.05-1.24-.32,1.19.34v.4L322,119l.27.15v0l-.88-.46v.68l-.76-.4.49.32.27.19v.33l-.21-.11-.79-.38q-.43-.2-.85-.35a2.12,2.12,0,0,1,.88.73h.46l-.24.21h.24l.21.21-1.56,1.28,1.77-1.07v-.21l.09.07v.28l-1,.72a3.2,3.2,0,0,1,.34-.29.58.58,0,0,1,.34-.14.2.2,0,0,0,.18-.09.27.27,0,0,0,0-.12h.09v.4l-.51.24a.59.59,0,0,0,.31-.09.35.35,0,0,0,.12-.12h.09v.06l.24.24a3,3,0,0,1-.75.4l.82-.34.12.12v.25a.86.86,0,0,0-.24.21,5.65,5.65,0,0,0-.82.44,6.74,6.74,0,0,1-.79.44h.24l1.61-.75v.25h.5l-1.44.71,1.75-.69.28.32-.26.16.27-.13.09.31-2.8.92,2.86-.7.17.57-.35.14a2.49,2.49,0,0,0-.81.17q-.47.17-1,.32l2.19-.48,0,.1.3.07-1.17.31,1.65-.19.22.05.1.21,0,.14h0l0,.14v.08l-4.27.21-.24.21,4.52-.21v.21l-2.26.24h2.45l.05.2h0L322,126h2.71v.21h0v.49h.21v.43h-3.14l3.14.24v.21h0V128h0v.21l-2.29.21h2.29v.27h0v.43h0v.24l-.46.21.46-.21v.43h0v.46h.21v.43h-2.72l2.72.27v.24h.21v.1h0a1.91,1.91,0,0,1,.6-.07l-.3.07h6.73v0h1v-1.36l.13,1.36h.27v0h1l.18-1.17v1.17H335v-1.36l.15,1.36h1.28v-.21h.61v0h.27l.16-1.84v1.84H338v0h1.29v.49h.27v-1.45l.17,1.45H340v-1a4.81,4.81,0,0,0,0,.58,1.71,1.71,0,0,0,.08.38h.34v0h.09v-.27h.34v0h.27v-.68l.1.68h.3v0H342v0h.44v0h.18l.12.64.31-.4v-2.3l.19,2.06h.57v-.21h.61v0h.06v-4.14h-.21v-.4H344v0h-.46v2l-.18-2h-.31v0h-.4v0h-.88v0h-.27v.25l-.08-.25h-.59v0h-.43v0h-.18v.25l-.14-.25h-.35v0h-.88v.65l-.11-.65h-1.18v-.27h-.27v0h-.65l0,0v0h-.27l.05-.71v-.11h0l0-.61.16-2.32h0l0-.41h1v0h1l.11-.68v.68h.21V119.2l.18,1.56.19,1.36h.79v-2.73l.18,1.37v.88l.09.47h.66l.34-3.61.24,3.61h.71V121l.21-1.77v2.91h.45v-4.32h-.24v0h-.43v0H341.3v0h-.46v0h-1.1v0h-1.1v.53l-.11-.53H338v0h-.85l0-.63h-.07l.21-2.93h0l0-.81Zm-12.75.93-2.67.58,2.67-.39v-.19Zm11.3,11.57h0v-.27l-.18-2.93-.21-1.28v.68h-1.37v-1.57l-.18,1.57h-.28v0h-.4v-.47l-.12.47h-.37v0h-.3l-.19-1v1h-.61v.2h0v.21h0V123h0v.43h0v.46h0v.21h-1.34a5.56,5.56,0,0,0,.72.12l.56.06h.06v.3h-2.89l2.89.15v.52h0v.4h0v.91h.73l.16.92v-.92h.21v0h.49v0h.61v1.53q0-.4,0-.79a5.92,5.92,0,0,1,.09-.7v0h.27v-.27h.06v0h.57l.1.74v-.74h.21v0h.48v0h.2l0-.36Zm-22.57-7.57h.07l-.46-7.41-.16,1.84h-.33v0h-.64v0h-.46v0h-.24v0h-.43v-1.42q0,.43,0,.79a5,5,0,0,1-.09.62h-.37v-2.12l-.21,1.8.21.21a.19.19,0,0,1,0,.1h-.66v.11h0l0,.27h-1.23l1.22.17,0,.29-2.82.18h2.8l0,.27h-.74l.73.1,0,.32h0l0,.31.22,0v.09h0v.7h0v.24h0v.43h0v.43h0v.64h0v.52h0v.64l-2.74-.19h-.64l3.38.19V119h.4v0h0v.21h.21l-.06-.24h.33v0h.38l0,.22V119h.67v0h.32l.14,1.17V119h.21v.44l.09-.44h.4v0h.64l0-.63Zm.36.63h.57v0h.43v0h.73v.22c0-.08,0-.15,0-.22h.15v-.24h.37l.15,1.41v-1.41h.61v-.58l.94-.65.25.14-.21-.17,0,0,.15,0v-.54h.24l.88.21h-.24v-.21l-.67-.08v-.56h1.61l-1.61-.15v-.33l1.83-.18h-1.83v-.73l-.1-.1.13-.09h-.21l0,0v-.21l-.19-.19h0l.21-.21.21-.49-.47.67-.13-.13-.46-.64h-.34v-.27h-.21V113h-.61v0h-.46v0h-.21v-.1s0,.07,0,.1h-.52v-.53l-.12.53h-.3v0h-.14l0,.59h0l-.43,4.76h-.21l.21,2.44v-2.44h.12l0,.63Zm-25.92-6.18.61,0v.06l6.86.49h5.16l-4.54-.64v-.27h0V112h0v-.26l1.83-.14h-1.83v-.25l2.34-.12h-2.34v-.55h0V110h2.34l-2.34-.17v-.29h1.61l-1.61-.11v-.29h2.53l-2.53-.2v-.56l6.12-.15v.24h-2.25l1.1.09.92.06.26,0,.25.26H300.6l1.34.24v.24h.41v.18l-2.6.22h2.6V110l-2.6.25h2.6v.2l-3.05.2h3.05v.55h0v.15h-1.92l1.92.21v.19h-1.92l1.91.19v.3h-2.58l2.58.21v.19h-4.38l4.38.49v.43h0v.88h0v.43h0v.52h0v.21h0V116h0v.33l-1.88.13h1.88v.25l-3.28.24h3.28v.46h0v.4h-.07v.18h.07v.52h0v.3l-.76.13h.76v.27h0v.37h0v.29l-.66.08a10.1,10.1,0,0,1-1.07.08l-1.25,0h3v.46h0v.46h0v.46h0v.21h-1.45l1.44.19v.2h0v.52h0v.4H299l3.23.26v.23h-2.35l2.35.17v.23H297.7l4.54.47v.44l-4.93-.18,4.74.85-.07.21-5.19-.67L301,126l-.08.26-4.16-.92,3.92,1.65-.09.29-4.41-1.72,4,2.28-.25.25-3.49-1.88,3.2,2.46-.23.26-1.45-1.2a7.62,7.62,0,0,0,.52.79q.27.37.52.64l.1.12-.07.08-.08-.08-.19.19-1-1,1,1-.24.24-.81-.84.74.91-.51.51h-.37a.67.67,0,0,1-.07-.17.92.92,0,0,0-.2-.37l-.06,0v-.33l-.17.17a1.26,1.26,0,0,1-.17-.25,5.11,5.11,0,0,1-.27-.63l.37.95-.24.24-.55-1,.44,1.12-.3.3h-.13l0,0v0h-.43l0,.14-.35-.85.3,1.29-.13.13-.22.06-.16-.38.1.4-.23.06-.69-2.26.31,2.3h-.27a4.85,4.85,0,0,1,0-.71v.71H294l-.38-2q0,.52,0,.95a7.12,7.12,0,0,0,.09.76l.05.32h-.41l-.13-.93v.93H293l-.2-2.94-.15,2.94h-.24v-1.42l-.17,1.42h-.34l-.19-2v2h-.4v-1.6l-.18,1.6h-.7v-.93l-.17.93h-.38v-.29l-.06.29h-.05l-.13-.13.06-.37-.06.37-.08-.08h-.6l0-.21h-.63l.47-2.27-.89,2.27h-.3l.28-1.17a1.41,1.41,0,0,1-.11.44,1.42,1.42,0,0,0-.11.44l-.14.29h-.32l.09-.18a3,3,0,0,0,.15-.32V130l-.31.75h-.37l-.06-.09.55-1.08-.59,1-.4-.57.31-.47-.35.41-.25-.36.76-1.15-.78,1.12-.08-.12-.27.31-.08-.08.11-.14-.11.14-.23-.23-.22.32h0l.79-1.32-.9,1.24-.24-.18.7-.84-.78.78-.31-.31h-.25v-.12a1.48,1.48,0,0,0,.24-.35l-.24.23v-.14h-.31l.07-.08-.08.08h0l-.29-.29h0l.17-.24a.22.22,0,0,0,.21-.12q.06-.12.27-.12a.75.75,0,0,0-.27,0,1,1,0,0,0-.21.21h-.15l-.12.12v-.3l.12-.06a2.23,2.23,0,0,1,.27-.34,2.9,2.9,0,0,1,.37-.3,7.17,7.17,0,0,1-.67.5l-.09.06v-.43h0l-.57-.38,1.31-.88-1.43.8-.3-.2,1.45-.88a3.2,3.2,0,0,1-.59.37,1.28,1.28,0,0,1-.5.15l-.31.14-.22.1-.38-.25a.84.84,0,0,1,.37-.2,2,2,0,0,1,.35,0l-.73.2-.13-.49,2.41-1-2.51.66v-.22l2.74-.84a14.53,14.53,0,0,0-2.06.4l-.68.18v-.4h0a.86.86,0,0,0,.2-.17.41.41,0,0,1-.14.09l-.1,0v-.38h.06a1,1,0,0,0,.24,0,.85.85,0,0,0,.43-.21h.24l-1,.18v-.88l.24,0a2.16,2.16,0,0,0,.49-.12l-.73.12v-.79h0v-.82h0v0l3-.35h-3v-.23l1.67-.22-1.67.22v-.49l2.25-.19h-2.25v-.92h.51a2.26,2.26,0,0,1,.67-.14l.7,0h-1.89v-.67h0v-1.34h0v-.46h0V116h0v-.18h0v-.92h0v-1.31h0v-.21l2.74-.19h-2.74v-.7h0V112h0v-.29l.13,0,.59-.09h-.73v-.67h1l-1-.15v-.31h0v-.26l1.67-.2h-1.67v-.46h.51l-.51-.07v-.57h0v-.47l3.35-.21h2.8v.25h0v.43h0v.4l-.38.06a6.07,6.07,0,0,1-.63,0h1v.15h-1.61l1.61.2v.54h0v.64h0v1.74h0v.15Zm9.47,17.53v0Zm-1.38-16h-.61v-.08h-6.86v.15h-.61v.09l-1.61.18h1.61v.46h-.3l.3.08v.38h0v.67h0v.26l-.79.14h.79v.3l-2.31.22h2.31v.4h0v1.13h-2.1l2.1.14v.32h0v.37h0v.53l-1.61.2h1.21l-.17,0,.26.56-2,.36,1.45-.16.37.42-3.41.32h1.8q.49-.06.95-.15l.69-.13.19.22-.22.07h.28l.16.18h0l.22.25v.27h0v.38l-.06,0H288v.33a3.51,3.51,0,0,0-.48.16h.21a.67.67,0,0,0,.27-.07v.62l-2.07.76L288,124v2.25h1.78l-.07.25.07-.25H290l.37.37h1.35v0h.3l.16,1.9v-1.9h1.77v-.22l.38-.29.26-.22.33-.29.34-.46V125l.4-.34v0l2.31.3-2.31-.51v-.2h.24V124h1.83l-1.83-.17v-.29h1.83l-1.83-.14v-.26h2.74l-2.74-.22v-.69h0v-.46h2.74l-2.74-.17v-.25h0v-.46h0v-.21h0v-.43h0v-.49h0v-.28l2.07-.12h-2.07v-.29l1.61-.2h-1.61v-.18h1.61l-1.61-.2v-.26h1.61l-1.61-.22v-.27h2.53a20.93,20.93,0,0,1-2.17-.09l-.36,0v-.74h0v-.52l2.74-.12h-2.74v-.49h0v-.4h2.74l-2.74-.2v-.32h0v-.43h0v-.11ZM287.53,121h0Zm-9.42-6.68-.13.59h0l-.6,3-.12.17,0-.23.07.05-1.08,1.63-.5.6,1.45-2-.3-.22h-.11l-.65,1.17.65-1.17h-1.33l-1.33,3,.94-3h-.35a8.27,8.27,0,0,0-.32,1.17l.17-.79.08-.37h-.22l.14-.43h-.14l-.7,2.05.51-2.05h-.27l-.39-.21-.25,1.07.25-1.07h-.42l-.46-.27-.56,1.87a2.54,2.54,0,0,1,.14-.81,2.47,2.47,0,0,0,.14-.78.8.8,0,0,0,.18-.34h0l-.27-.16h-.59l0,.07,0-.07h-1.23l-.38,1,.3-1.06v-.15l-.44-.33-.13.43a5.27,5.27,0,0,0-.15.63,5.27,5.27,0,0,1,.15-.63l.13-.43-.23-.18h-1l-.69,1.72.52-1.81-.26-.3h-.13l-.63-.38-.19-.5h-1.23l1.13-1.5-.14-.16.11-.1-.25-.18.25.18,1.14-1h.11l.21-.27h.51v-.36l.1.36h.35v0h.43v0h1l0,0,.06,0h.1l.08.09.78.39h.46l.75.64H274v.38l.18,0v1l3.89.11Zm-68.52,5h-.79v.24l-1.34.17h1.34v.18h-1.34l1.12.16v.59l-2.07.11,2.07.21v.22l-.43.06v.08l-1.37.16h1.37v.32l-.64,0-1,0a7.92,7.92,0,0,0,.93.17l.71.08v.23l-2.89.23,2.89.38V123H208v.32l-.27,0v.6l-1.34.09h1.34v.42h0v.07h-.15v.14h0v.56h-.27v.17h0v.44h-.21V126H207l.09,0v.47h-.21v.32l-1.12.12h1.12v.44h-.21v.14h0v1.16h0V129l0,0h-.41v1.18h0v.5h-.43v.7h-4.2v-.78h0v-.11h-.27v-.26l.24-.06h-.24v-.6H201V129h-.21v-.1l.12,0h-.12v-.21h0v-.43h0v-.46h0v-.14h-.46v-.21l.58-.07h-.58v-.64h0v-.23h-.18v0h0V126h0v-.14h-.27v-.29h0v-.27l1-.16h-1V125h-.15v-.16l.67-.13h-.67v-.64h1.76l-1.76-.1v-.07h-.28v-.26h1.61a.5.5,0,0,0-.34-.18,4.05,4.05,0,0,0-.55,0h-.73v-.24h2.71l-2.71-.14v-.21h-.18v-.1h0v-.46h0v-.31l.7-.12h-.7v-.17H199v-.43h-.18v0h0v-.38l.3-.08h-.3v-.14h-.18v-.29h0v-.6h-1v-.31h0V119h0v-.18h-.27v-.15l1.07-.27h-1.07v-.15h-.15v-.52h0v-.24h0v-.18h-.31v-.43h0v-.43h-.15v.15h.15V117h-.15v1.19h.15l-.15.43v.58l-1.37-.24h-1.07l2.59.24v.18h-2.41a7.32,7.32,0,0,1,1.65.15,5.55,5.55,0,0,0,.76.15h-.61v.17h-1.8a9,9,0,0,1,.95,0l.76.11h.09v.26h0v.7h0v.46h0v.21H196a1.12,1.12,0,0,0,.27.07v.79h0a3,3,0,0,0-.41.17h.45v.92h0v.27h-.7l.7.08v.12h-.15v.6h0v.46h0v.38l-.3.05h.3v.27h0v.22l-2.25.24h2.25v.43h0V127l-1.4.11h1.4v.32l-1.4.11h1.4v.27h0v.38l-.3.08h.3v.26l-1.4.17h1.4v.43h0v.32l-1.4.2h1.4v.24l-2.25.34,2.25-.18v.44l-3,.17h3V131l-1.31.23-3.33.13,3.45-.5h-4.48v-.36l.27-.07h-.27v-.26l3-.2h-3v-.29l.27,0h-.27v-.37l1.43-.15h-1.43v-.21h0v-.64h0v-.33l1.58-.13h-1.58v-.32l1.43-.11h-1.43v-.32l1.43-.11h-1.43v-.21H192l-.9-.15-.68-.09v-.25l2.07-.23h-2.07v-.22h.24v-.29l.76-.07h-.76v-.27h0v-.48l4.51-.2h-.49l-4,.19v-.43h1.64l-1.64-.13v-.18l4.51.13-2.69-.43h-1.34l-.48-.09v-.82h0v-.14h-.24v-.32H191l-.54-.09v-.74l2.53-.24h-2.53v-.46h0v-.43h0v-.15h0v-.46h0v-.49h0v-1h0v-1.37h1.89l2-.27-3.84-.13v-.56h0l1.59-.12,2.26-.24h-4v-.25L192,115h-1.77v-.46h0v-.43h0v-.46h0v-1.07h0v-.5L192,112h-1.77v-1.31h2.25l-2.25-.22v-.24h0v-.28h.18v-.63h0v-.22l2.07-.21h-2.07v0L197,108v.23l-3,.13h2.41l.54-.07v.25h2.59v.23l-.3,0h.3V109h.21v.17l-.67.08h.67v.49h0v.42H200v.3l-1.19.16H200v.17h.27v.45h-.21a14.44,14.44,0,0,0-1.71.24h1.92v.63h.09l.08.08-1.35.17h1.52l.18.18h0l.06.06v.4h0v1.06h.18v.32l-1.95.12h1.95v.63h.24v.65a5.79,5.79,0,0,1-.91.06h.91v.63h.24v.61l-.64.1h.64v.21h.27v.34l-.58.09h.58v.17H202v.63l-.73.08H202v.63h.27v.28h0v.63h.15v.25h0v.2h.89V121h0v.18h0v.49h.15v.15h.67l1.14,0a7.17,7.17,0,0,0,1.24-.14h.73l-3.26-.21v-.27l2.81-.18-2.15-.22H205v-.2h.7l-.7-.12v-.31h0v-.46h0v-.1h.15V119h0v-.18h1l-1-.09v-.33h0v0h.27v-.63h1.06l-1.06-.15v-.07h.15v-.21h.91l-.91-.13V117h.27v-.21h0v-.43h0v-.31h.48l-.48-.08v-.29h0v-.07h.21v-.15h.24v-.94h0v-1l.07-.06h1.27a8.72,8.72,0,0,0-1.12-.21v-.23h.21v-.7H207v-.2h0v0l.15,0v-.37h0v-.26l1.92-.2-1.64-.12v-.49h0v-.46h1.37l-1.37-.13v-.51h0v-.07h.18v-.82h0v-.1h3.14v-.17h.49v-.15l-.49.08V108l6.55.77v0h0v.43h0v.27H216l1.27.2v.16h.1v.1h-2.26l2.26.18v.18h-2.62l2.62.27v.15h0v.73l-2.62.18,2.62-.18.08.13V112l-4,.17,3.94.27v.18h0v.27l-.95.18h1v.2l-3.56.23h3.48v.64h0v.27l-2.26.15h2.34v.31H216a4.93,4.93,0,0,0,.59.08l.44,0,.34,0v.27h.08v.37l-.05.05h0v0l-.1.1v.06l-1.85.17h1.85v.31h0v.43h0V117l-2.52.23h2.52v.64h0v.46h0v.28l-2.37.15h2.37v.2l-1.27.23h1.27v.18h-2.16l2.16.26v.23h-2.16l2.16.26v.16h-1.85l1.85.26V121l-2.37.18h2.37v.27h-1.42l1.42.2v.17h0v.43h0v.32H217v.14h0v.5l-3,.2h3v.26l-3.13.23L217,124v.76l-1,.15h1v.21h0v.43h-2.28l2.52.26V126h0v.46h0v.49h0v.15H214.9l2.37.26v.16h-1.85l1.85.26v.2h-2.16l2.16.23v.47h0v.43h0v.25l-2.8.27h2.8V130h0v.26h-.11q-.49.06-1.16.18h1.27v.25l-2.8.18h2.8v.28l-.51,0-.93.06-.94.08-3.29-.13v0h0v-.49h1.83a15.48,15.48,0,0,1-1.83-.1v-.33h1.34l-1.34-.12v-.3h0v-.46h0V129l1.34-.12H211.6v-.64h0v-.46h0v-.32l1.83-.1H211.6v-.64h0v-.36l.92-.07h-.92v-.37l1.34-.09H211.6v-.34l1.34-.09H211.6v-.27h.49l-.49-.08v-.38h1.83l-1.83-.12v-.33h0v-.14h-.15V124l.79.08-.79-.08v-.35h0v-.5l3.45-.15-3.45-.22v-.67h0v-.64h1.07l-1.07-.15V121h0v-.43h0v-.43h0v-.38l.64-.08h-1.37v-.31h2.23l-2.38-.18V119h0v-.34h0v-.43h0v-.31l2-.21h-2v-.24h2.17l-2-.18V117h3.17l-3.33-.18v-.27h-.31V117h0v.24l-2.38.18h2.23v.46h0v.31h-.27v.43h0v.15h0v.43h0v.18l-.25,0v-.14Zm7.68,12h-2l2,.08v-.08Zm-7.59-11.61h0Zm-64.57-6.56-.09.6h-2.34V114h-.24v0h-2.68l4.79.18v.55h-.28v.37h.28v.24l-.85.12a7.34,7.34,0,0,1-.88.08l-1,0h2.47v.27l-1.83.18h2.11v.24H141.8l2.75.18v.21h.06l-.07.52h0l0,.19-2.21.18h1.53v.27h.46V118h-1.59l1.69.22,0,.24h0l-.06.43h0l-.07.49h-1v.24h1l0,.16-3.23.29h3.19l-.05.37h0L144,121h0l-.05.37v.33h0v.48l-.76.13.76-.13v.4h0v.2l-1.49.17h1.49v.31h-6.22v-.37l3-.3-3,.15v-.46l3-.15h-2.56c-.1,0-.16,0-.17,0a.79.79,0,0,1,0-.21h2.26l-2.53-.15v-.34h2.71l-1.14-.11-1-.06h-.54v-.46h0v-.31l1.16-.12h-1.16v-.18h0v-.46h2l-2-.2v-.54l.51,0,1.16-.06,1.34-.09H142a12.16,12.16,0,0,0-1.94-.21l-1.88,0h-.45V118h0v-.31l1.16-.18h-1.16v-.18h0v-.46h0v-.29l2.53-.17h-2.53V116h0v-.18h1.16q-.34,0-.66,0a4.12,4.12,0,0,1-.5-.08v-.38h3l-3-.2v-.29l1.83-.11h-1.83v-.27h.45l-.45-.15v-.91h-.61v0h-.49v0h-.4v0h-1.16v0h-.61v0h-.95v-1.2q-.09.34-.14.61t-.08.49v.1h-.48v-2.3l-.16,2h-.54l-.18-1.57v1.57h-.52l-.15-.68v.68H131v-.93a4,4,0,0,0-.12.61l0,.32h-.11v-3.42l.06.9v-2.27H131v1.2l.14-1.2h1v0h.32l.08.47v-.47h.21v0h.7v.31q0,.31,0,.67a2.76,2.76,0,0,0,.24.85v-1.84h.85v0h4.11v0l.63,0h.11l1.64-.08v0l1.95-.09h.85v.17h.8v0H145l.17,1.56v-1.56h.31l.18,2.91.15-2.91h.28v.47l.1-.47h.35v0H147v0h.21v0h.43v0h.32l.14,2.08v-2.08h.46v0H149v0h.49v0h.27l.16,1.2v-1.2h.21v1.38l.17-1.38h.1v4.78h0v0h-.7v-1.39l-.13,1.39h-.3v-1.87l-.19,1.87h-.67v-2l-.21,2h-.25v0h-.55v0H147v0h-.27V112l-.12,1.14h-.34v-1.87l-.15,1.87h-.28v-1.57l-.18,1.56h-.49v0Zm-1.18,10.09v.61h0v.78h-.27v.17H141.8l1.86.2v.23h-2.74a7.16,7.16,0,0,0,1.6.24l1.14,0v.18h-.06v.21h0l.06-.06v1.39h.27v.25h0v.85h0v.43l-.33.09h.33v.37h0v.49h-.33l.33.07v.41h0v.58h-.58v.3h.58v.27l-3.84-.09-2.37-.13v.07l2.09.05-2.09-.14v-.52h.45l-.45-.09v-.31h0v-.49h1.46l-1.46-.1V129h0v-.7h0v-.43l4.27-.24-4.27-.16V127l1.46-.19h2.62l-4.08-.16v-.51h0v-.21h3.66l-1.62-.21h-2v-.55h.06a7.27,7.27,0,0,1,1.4-.11h-1.46v-.7h3l1.71-.18-4.72-.43v-.29l6.22-.16ZM166.47,115l-.08-.27,1.09-1.09-1.09,1.09v0l-.34-.16.16-.22-.25.13-.36-.36a1,1,0,0,1,.12-.29l.14-.34a3.05,3.05,0,0,0,.14-.43l.21-.4-.67,1.38-.16-.16-.46-.36.29-.86-.45.73h0v-.32H164l-.07-.08v-.15l0,.09-.07-.08h-.28v-.59l-.11.59H163v-.59l-.09.59h-1.8v-.59L161,112v.27l.08.59h0v.21h-.2l-.3.46h-.42l-1.45,1v.68l-.32.32-3.24-.57,3.09.72-.66.66v0l-1.21-.12.81.15.39.07-.05.39h-.26l.26,0-.08.55v.29h0v.2h-.18v.68l-.39-.08.39.08V120h0v0l.31,1.55-.09-.11h0v.21h.11l.08.4h0l0,.24v.11l-.67.14h.67v.69l-.85.11.85-.11V124l-.24.09h.18l.16,0h.33v1.23l.87-.23.39.39-.46.37-.18.18.64-.54.29.29h.06l.2.2.26.39v.29h.4v.21h.88l-.06.16h.27v-.16h.61l-.21,1v.4l.21-1.44h.84l.23.65-.14-.65h1v-.25h0v0a.67.67,0,0,0,.17.21.58.58,0,0,1-.16-.24l.53-.25,0,.06v-.07l.7-.32h0l.42-.42.16.24.21-.27-.17-.17.39-.39-.07-.13.19-.22.15.08-.15-.08.06-.07V124l.09,0-.09,0v-.15l.17-.15,2.6.55h-.21l-2.34-.7v-.29l.05-.2.62.12.61.18-.76-.27a1.48,1.48,0,0,0-.44-.12l.21-.83,1.66.22-1.66-.24.21-.83h0l.17-.66v-1.36l1.28-.27-1.28.12v-.38h.78l-.37-.61.65-.24-.69.16L167,116.7l.35-.34-.12-.12.83-.6-.83.6-.32-.32,1.61-1.57-1.68,1.49,0,0-.2-.3.64-.76-.74.61-.14-.21.08-.11Zm115.19,7.81,2-.14q-.52,0-.93,0l-.75.06-.32,0Zm-.66.37h0Zm.64.52v.15l1.65-.33-1.65.17Zm-19.22-10.79h0Zm17.41,9-.56.22h0l-.73.17,1.33-.4Zm1.58,2-.7,0,.23,0,.47,0ZM277,126.67l0-.06,0,.06Zm-11.81,2.07.06-.07,0,0-.11.11Zm.38-3.28c.32-.09.36-.1-.06.07l.06-.07Zm-.14,1.18,1-.49-.77.63-.12-.18-.15,0Zm-.31.62-.46.38v-.11l.46-.27Zm1.8,1.79.18-.43-.1.43Zm.44.7-.06.17,0,0,.08-.21Zm2.61-1.13,0-.24,0,.24Zm.1.89L270,130l.07-.48v0Zm2.16-.55.14.78h-.14V129Zm1.86-.77-.06-.27.1.27Zm.54-.77.1.14v.13l-.1-.28Zm.31.43,0,.06h0a.38.38,0,0,0,0-.06Zm-.45-1.53.82.53q.36.23.68.47l-.16.18-.27-.29a1.19,1.19,0,0,0-.21-.2l-.18-.15v.18l-.67-.73Zm1.13.31h0l0,0h.06l0,0Zm-.19-.18a1.78,1.78,0,0,0-.49-.31l.49.22v.09Zm1.18.44.59.26.22.11-.66-.3-.15-.07Zm-1.18-1-.27-.14.27.06v.07Zm.83-1.11.51-.06v.12l-.51-.05Zm1.53-.19.48-.06v.06Zm-1.42-1.48-.33.11.31-.13,0,0Zm-.74-.12-.48.22.39-.3.08.07Zm-.48-.33-.21.15.21-.24v.08Zm.55-.7.28-.31H276l.12-.09.15-.06a.67.67,0,0,1,.21,0l-.82.49Zm.28-.31h0ZM275,122l-.1.1L275,122Zm.32-.51.21-.3-.13.3Zm2.88-6.58h.43l-.58,1.66.15-1.67Zm-5.51-3.75v0l.08-.27-.07.25Zm-6.26.39.2.18h0l-.2-.12v-.06Zm.09,1.75.18.11h-.28l.09-.11Zm-.58,1.65.11,0-.11,0Zm.1.85.28-.12-.2.2-.08-.08ZM265,117.55l-.15.15.13-.14Zm1.43-1,.11-.08-.07.13,0,0Zm.69-.49.07-.05a.42.42,0,0,1-.07.1v0Zm.35-.25.14-.1-.1.13,0,0Zm-.05.79h.19l-.31.21.11-.21Zm1.53,10.64,0,.07,0-.07ZM281.65,122h0Zm4.73-8.82-2,.21h3.81v.18h.21l-1.1.21h1.1V114h6.86v-.24h1.37l-10.25-.61Zm-3.08,1.28h0Zm1.07,9.34h.46a.55.55,0,0,0,.27-.09l.15-.12-.15.12a.55.55,0,0,1-.27.09Zm.61-.89-.15.27.85-.27ZM283.51,126a.49.49,0,0,1,.3-.18,2.75,2.75,0,0,0,.55-.18.9.9,0,0,0,.43-.14,2.83,2.83,0,0,0,.46-.32l-1.1.46a1,1,0,0,1-.37.18.48.48,0,0,0-.27.18Zm2.38.27a3.33,3.33,0,0,1,.38-.34.59.59,0,0,1,.35-.12.59.59,0,0,0-.35.12,3.33,3.33,0,0,0-.38.34Zm1.4-.85v.21l.4-.46-.4.24Zm.4.58h0Zm.49.7.21-.43-.21.24-.49.89.49-.7ZM293,128l-.24-.82.24,1.31V128Zm1.13-.64h0Zm.67,1.53.18.49-.4-1.37.21.88Zm-.21-2.23-.18-.18v.43l.18-.24Zm2.38.7-.37-.46.15.27.09,0c.08,0,.12.09.12.15ZM318.32,123h.21a.2.2,0,0,1,.09-.18.27.27,0,0,1,.12,0h-.21a.16.16,0,0,1-.21.21Zm-1.8-2.26.73-1.07-.21-.52v.52h-.31l-.21,1.07Zm.52.43.85-1.28-.21-.21v.21l-.64,1.28Zm1.28-1.8-.43-.43.21.73.21-.3Zm-.64-.85-.21-.21.21.21Zm1.31.85a.27.27,0,0,1-.12,0,.2.2,0,0,1-.12-.18l.24.52v-.3Zm-.46,1.37a1.12,1.12,0,0,1,.47-.52,2.29,2.29,0,0,0,.47-.34.27.27,0,0,1-.12,0c-.06,0-.09-.08-.09-.18l-.73,1.07Zm0,.64,1.62-1.49-.24-.21v.21h-.21l-1.16,1.49ZM317,118.1v.24h.21l-.21-.24Zm.21.67.21.21-.21-.43v.21Zm-.95,0v0Zm-.43,2-.24-.21v.21Zm.43-.21v0Zm2.23-.85a3.87,3.87,0,0,0-.64.9q-.31.56-.64,1.08l1.49-1.77-.21-.21Zm1.83.43-.21.43.43-.43Zm-2-5.64.67-.43a1.19,1.19,0,0,1-.35.21.89.89,0,0,0-.32.21h0Zm3.2,1.13h0ZM319,114.5l-.46.21H319v-.21Zm.49-.91v0Zm-1.37-1.34.21-.46a.76.76,0,0,0-.18.34.5.5,0,0,0,0,.12Zm.21-2.93-.21.92-.64,1.34.64-1.13a1.33,1.33,0,0,1,.11-.56,1.34,1.34,0,0,0,.11-.56ZM317,111.57v0Zm.43-1.83-.21.7.21-.46v-.24Zm-.95,1.62v.43l.21-.43Zm-6.74-.21-1.8.21h1.8v-.21Zm0,.88H308l1.8.21V112Zm0,.43h0Zm-.67-3.14H310v-.21l-.88.21Zm.67.43h0v.49h0v-.49Zm0,.7-.62,0a8.25,8.25,0,0,0-1.17.18h1.8v-.21Zm-2.93,1.34h2.93v-.21l-2.93.21Zm0,8.36h.21l-1.56-.21-.24.21Zm-3.11,7h2.68l-2.68-.21v.21Zm0,.46h0Zm-.27,2h.27l-.27-.21v.21Zm0-.88v.21l3-.21Zm0-.7v.21l3.6-.21Zm3.17-4.48h0Zm3.57-2.93v-1.16H310v.3h-1.74l2,.21v.21h-.43v.21H310v.21Zm3.42-4.06.21-3.63v-.43q0-.34,0-.81a4.58,4.58,0,0,0-.18-1v2.72h-.21l.21,3.14Zm2.26,5.89v0Zm24.74-1.86.21,1.31-.21-1.31Zm-4.48,2.17v0h-.21l.21,1.59.27-1.59Zm-4.88-4.39h0Zm-.21,0h0Zm.88.4h0Zm0,.49h0Zm-.67,0h0Zm0,.4h0Zm.18,0h0Zm.27.67v.27l.21-.27Zm0,.49v0Zm-.27.4h0Zm-.18-3.33h.67l-.67.21v-.21Zm-2.44-.46h0Zm2.23,1.34h0Zm-1.83,1.56,2.23.27-.18-.27Zm.27.49,2,.21v-.21Zm2.23,1.1h0Zm-.67-9.79h0Zm.4-1.16h0Zm-.88,0h0Zm0,.49h0Zm.88,2.23h0Zm.49-.95h0Zm-.49-3.81h0Zm0,.95h0Zm-.88,0h0Zm.21,2.26h0Zm0,14.46h0Zm0,1.16h0Zm.67-1.37v0Zm-.4-.18h-.67a.51.51,0,0,0,.31.17l.37,0v-.18Zm-.27,2.23a.67.67,0,0,0-.34.11,1.12,1.12,0,0,1-.55.11h.88v-.21Zm-1.1.7h1.1v-.27l-1.1.27Zm-.46.18,1.56.21v-.21ZM30.07,114h0Zm-1.53.46h0Zm.95-5.28h0ZM29,113.68h0Zm1-.61H29v-.18l1,.18Zm-1-.92h0Zm1-1.34-1.31.27H29v-.27Zm-1.31,2.07h0Zm0-1.34v-.27h1.59a2.83,2.83,0,0,0-.79.14,2.83,2.83,0,0,1-.79.14Zm.27-1.16h0Zm-1.53-1.53-1.34-.18h1.34v.18ZM24.64,117h0Zm4.39-.92h0Zm0-.79h0Zm0-.27H27.51l1.53-.15h1.31L29,115Zm2-.61-2,.15v-.15ZM37.58,123l-3.08-.27H36l1.59.27Zm-2.81,1.25,1-.18,1.8.18H34.77Zm1,.24h0Zm-.15.95h0Zm.15.15h0Zm.67.73h0Zm-.67-.73h0Zm.52-.88v-.21h.15l-.15.21ZM36,126h0Zm-.21,3.78h0Zm-1.28-2.84,1.13-.21v.21Zm1.8-3.33v.27H34.77a2.24,2.24,0,0,0,.73-.14,2.42,2.42,0,0,1,.79-.14Zm2.38-1.37-2.68.27H33.58l2.2-.27H36a.58.58,0,0,0,.18,0l.14,0a.27.27,0,0,0,.14-.08,9.12,9.12,0,0,1,1.13.08,9,9,0,0,0,1.1.08ZM45.91,112l-1.49.18V112h1.49Zm-3,2.44v-.27h0v.27h0Zm0-5.13h0Zm2-.15h0Zm-.43,2h0Zm-1.53,2h0Zm1.53.61H43v-.18l1.37.18Zm-1.53-2h0Zm3-.18h0ZM43,111.08h0ZM44,114h0Zm1.8-1.34h-2l-.21-.18,2.23.18Zm-2.23-1.8,2.38-.15H44.84v.15H43.53Zm-2.44,0h0Zm2,5.28h0v.31h-.15a1.12,1.12,0,0,1-.27,0,.82.82,0,0,1-.46-.27h.73v-.18H40.63l2.26-.18,2.17.18H43v.18Zm.92-.79H43V115h2.72a3.54,3.54,0,0,0-1,.14,3,3,0,0,1-.81.14Zm21.69,8.57H67.9l-2.26.18v-.18Zm-1.13-.49H65v0h-.46v0Zm.46.88v0Zm-.46,0v0Zm.95.7v0Zm.18,0v-.21H67l-1.31.21Zm0-.43h0Zm-.18-.49v0Zm0-.4v0Zm-.95.21v0Zm1.13,1.28h0Zm-.18,2.26h.61l-.61-.21v.21Zm0-.89h0Zm.4-3.14H67l-1.1.27v-.27Zm-4.24-8.66.43,0,.44-.08a1.84,1.84,0,0,0,.5-.17H60.06l1.56.27Zm-.18-.49h0Zm.4-.46.49-.21h-.49v.21Zm-.67-.64h0Zm0-1.34h0Zm-.21.89h0Zm.67.21h0Zm.43-.64h0Zm-.61,1.31-2-.21,2,.21Zm.18-.21h0Zm-2.44,1.59,2.26.21v.18h.18v-.18h0v-.21Zm6.28,12.69h0Zm2-.64-2-.24V127Zm22.48-11.84-.21.21.85-.46-.64.24Zm-2.23-1.8.46-.4.46-.46-.92.85Zm-2.41-.85q0-.21,0-.37a.52.52,0,0,1,.17-.31l.27-1.1-.46.85v.92Zm-.24-.46v0Zm-.67-.46v.92l.27-.92ZM80,110.26v0Zm-.18-.24h0Zm-1.59-.4h0Zm.46.64,1.13.21v-.21Zm1.13.46h0Zm.18.85h0Zm-.18,0h0Zm-.27.46h0Zm.73.46h0Zm-.27.18h0Zm.27-.64h0Zm0-2.68v0Zm0,.27v0Zm-2-.92h0Zm-.64,2.41h0Zm3.05,19.74-.18-2.68v.27H79.5l.92.18v.21h0v.24H78.64l1.77.18v.27h0v.85h0v.46Zm-.18-3.33h0Zm0-1.1h0Zm0,.18h0Zm0,.46h0Zm6.44-.64.21.18-.21-.18Zm.85,2.2H88l-.73-1.31.46,1.31Zm0-2,.15.27a2.9,2.9,0,0,0,.15.32,3.06,3.06,0,0,1,.15.32h.18l-.64-.92Zm0-.18-.46-.46.27.46Zm1.56,2.84v-.18l-.64-1.1.64,1.28Zm.21-1.28-1.77-2.23.46.85.18-.18.92,1.56Zm-.85-2.23.64.67-.64-.67Zm1.56,1.56-.24-.24.24.24Zm-.46-2-.24-.18.46.4-.21-.21Zm-.24-1.1h.24l-.64-.46.4.46Zm.24,0,.85.64h.27l-1.13-.64Zm2.41,1.56-.46-.24.46.24Zm-2.2-2.2.64.46-.64-.46Zm1.34.82,1.13.73-1.13-.73ZM111,120.54l.21,1.31-.21-1.31Zm-11.81-3.17h0Zm2.23-5.31h0Zm.4-1.16h0Zm-.88,0h0Zm0,.49h0Zm.88,2.23h0Zm.49-.95h0Zm-.49-3.81h0Zm0,.95h0Zm-.88,0h0Zm.21,2.26h0Zm0,4.67H95.39l5.77-.24v.24Zm0,11h0Zm0,.67v.21h-.88a1.12,1.12,0,0,0,.55-.11.67.67,0,0,1,.34-.11Zm-1.1.7,1.1-.27v.27Zm-.46.18h1.56v.21l-1.56-.21ZM138,113.74v0Zm-.46-1.1v0Zm.64.73h0Zm6.38-1.62h0Zm-1.86.46h0Zm-.24-.46h0Zm2.11-.82h-.95v.18h.95v-.92h-.73v.24h.73v.49Zm-.28-1.86v.21h.28v-.21Zm.28.67h-.49v.18h.49v-.18Zm-.49-.67-1.62.21h1.37l.24-.21Zm-1.62.85h1.16l.21-.18-1.37.18Zm0,.27,1.16.24v-.24Zm1.16,1.07v.31h.95v-.31h-.95Zm-.43.31h0Zm.88-3.2-.46.3h.46v-.3Zm-.7,2.75v-.18l-.91.18Zm-.37,2h1.07a.37.37,0,0,0,.17.14l.17.08.15,0v-1.16h0v.92Zm-5.89-.24v0Zm.43.24v0Zm.64.61h0Zm5,16.44h0Zm0-.49h0Zm.18-.85h0Zm0-.52h0Zm.24-.85h0Zm0-.88h0Zm2.23-15.32v0Zm25.23,6-.4.21.79-.21Zm-.18,1.71-.82.18.82-.18ZM169,115.84h-.21l-.21.18.43-.18Zm-1.1.18.88-.4,1.89-1.49-1.07.61L167.88,116Zm1.1-1.89-1.28,1.49.67-.46.61-1Zm-.43-.18-.46.4,1.28-1.07-.82.67Zm.21-.88-1.28,1.28.88-.67.4-.61Zm-1.89.61-.18.46,1.19-1.28-1,.82Zm0-1.4-.18.18.18-.18Zm0,1,.61-.82-.79,1-.27.21a.7.7,0,0,0,.26-.27.19.19,0,0,1,.2-.12Zm-.67-3.39-.21.4.21-.4Zm-.61.67v0Zm-.18,2.5v-.4l.4-.89h-.21l-.18,1.28Zm-7-.61-.49-.88.27.7.43.4-.21-.21Zm.21,1.49h0Zm-2.78,1.89H154.4l2.17.18-.67-.18Zm0,1.46h-.82l2.11.21-1.28-.21Zm.4-.67h0Zm-1.22,3h0Zm-.18-3.36-.67-.21.18.21Zm-1.1,2.5h0Zm0,2h0Zm.82,1.68a9.53,9.53,0,0,1-1.42.18l-1.27,0h1.68l1-.21Zm-.82.61h1.89l.43-.21H154.4l-.61.21Zm.61.4,1.71-.18h-.21l-2.11.18Zm-.18.4h.18l1.1-.18a2.38,2.38,0,0,0-.66.09,2.26,2.26,0,0,1-.63.09Zm2.35,1.28a.62.62,0,0,0-.34.12l-.12.09-.43.21.43-.21.46-.21Zm.61.88-.21.21.21-.21,1.28-.67-1.28.67Zm.21-1.46h0Zm-.21-.88h0Zm2.07,3h0Zm.7.4-.49.49.21.18v-.18l.27-.49Zm6.25-13.67-.21.4.21-.4Zm1.89,11,.46.21-.46-.21Zm0,3.78v0Zm-1-.21.4-.21h-.21l-.18.21Zm.18-1.07-.4-.43v.21l.4.21Zm-1.86.85v0Zm0,0q-.15-.34-.21-.52a.85.85,0,0,0-.21-.34v-.21h-.27l.27.4.43.67Zm0,.43v0Zm.18-1.71v0Zm.21.21.18.21-.18-.21Zm.18,2.56v.21a.14.14,0,0,0,.09.15.27.27,0,0,0,.12,0,.16.16,0,0,1-.18-.12,1.13,1.13,0,0,1,0-.27Zm.21-2.56h0Zm.21-.4h.46l-.18-.21-.27.21Zm.46.79-.18-.18-.27.18.27.21.18-.21Zm.21.49h-.4l.18.18.21-.18Zm.18.79.43-.4-.61.21.18.18Zm.21.21.61-.21-.21-.18-.4.4Zm.21.21h-.21v.18l.21-.18Zm0,.46a.63.63,0,0,1,.43-.26.76.76,0,0,0,.43-.2l-.18-.21-.67.67Zm2.35-2.35v-.21l-1.28-.61h-.4l1.68.82Zm-.88-1.71.43.21-.61-.4.18.18Zm.88,2.1q0-.09-.15-.18a.27.27,0,0,0-.12,0l.27.21Zm-.27-5.25h0Zm0-2.1h0Zm.67-.4h0Zm.82.61h0ZM197.75,114h0Zm-1.53.46h0Zm.95-5.28h0Zm-.46,4.55h0Zm1-.61-1-.18v.18Zm-1-.92h0Zm1-1.34h-1v.27h-.27l1.31-.27Zm-1.31,2.07h0Zm0-1.34a2.83,2.83,0,0,0,.79-.14,2.83,2.83,0,0,1,.79-.14h-1.59v.27Zm.27-1.16h0Zm-1.53-1.53v-.18h-1.34l1.34.18ZM192.32,117h0Zm4.39-.92h0Zm0-.79h0Zm0-.27,1.31-.15h-1.31l-1.53.15Zm2-.61h-2v.15l2-.15Zm6.59,8.57-1.59-.27h-1.5l3.08.27Zm-2.81,1.25h2.81l-1.8-.18-1,.18Zm1,.24h0Zm-.15.95h0Zm.15.15h0Zm.67.73h0Zm-.67-.73h0Zm.52-.88.15-.21H204v.21Zm-.3,1.31h0Zm-.21,3.78h0Zm-1.28-2.84h1.13v-.21l-1.13.21Zm1.8-3.33a2.42,2.42,0,0,0-.79.14,2.24,2.24,0,0,1-.73.14H204v-.27Zm2.38-1.37a9,9,0,0,1-1.1-.08,9.12,9.12,0,0,0-1.13-.08.27.27,0,0,1-.14.08l-.14,0a.58.58,0,0,1-.18,0h-.21l-2.2.27h2.41l2.68-.27ZM213.58,112h-1.49v.18l1.49-.18Zm-3,2.44v-.27h0v.27h0Zm0-5.13h0Zm2-.15h0Zm-.43,2h0Zm-1.53,2h0Zm1.53.61-1.37-.18v.18Zm-1.53-2h0Zm3-.18h0Zm-2.87-.46h0Zm.92,2.87h0Zm1.8-1.34-2.23-.18.21.18Zm-2.23-1.8h1.31v-.15h1.07l-2.38.15Zm-2.44,0h0Zm2,5.28v-.18h2l-2.17-.18-2.26.18h2.26v.18h-.73a.82.82,0,0,0,.46.27,1.12,1.12,0,0,0,.27,0h.15v-.31h0Zm.92-.79a3,3,0,0,0,.81-.14,3.54,3.54,0,0,1,1-.14h-2.72v.27h.92Zm26.21,16v0ZM234,120.54l.21,1.31-.21-1.31Zm-4.48,2.17v0h-.21l.21,1.59.27-1.59Zm-.88-8.69v0Zm-4,4.3h0Zm-.21,0h0Zm.88.4h0Zm0,.49h0Zm-.67,0h0Zm0,.4h0Zm.18,0h0Zm.27.67v.27l.21-.27Zm0,.49v0Zm-.27.4h0Zm-.18-3.33V118l.67-.21Zm-2.44-.46h0Zm2.23,1.34h0Zm-1.83,1.56,2.23.27-.18-.27Zm.27.49,2,.21v-.21Zm2.23,1.1h0Zm-.67-9.79h0Zm.4-1.16h0Zm-.88,0h0Zm0,.49h0Zm.88,2.23h0Zm.49-.95h0Zm-.49-3.81h0Zm0,.95h0Zm-.88,0h0Zm.21,2.26h0Zm0,14.46h0Zm0,1.16h0Zm.67-1.37v0Zm-.4-.18h-.67a.51.51,0,0,0,.31.17l.37,0v-.18Zm-.27,2.23a.68.68,0,0,0-.34.11,1.12,1.12,0,0,1-.55.11h.88v-.21Zm-1.1.7h1.1v-.27l-1.1.27Zm-.46.18,1.56.21v-.21Zm31.06-5.37v.18l2.26-.18Zm-1.13-.49H253v0h-.46v0Zm.46.88v0Zm-.46,0v0Zm.95.7v0Zm.18,0,1.31-.21h-1.31V125Zm0-.43h0Zm-.18-.49v0Zm0-.4v0Zm-.95.21v0Zm1.13,1.28h0Zm-.18,2.26h.61l-.61-.21v.21Zm0-.89h0Zm.4-3.14v.27l1.1-.27Zm-4.24-8.66.43,0,.44-.08a1.84,1.84,0,0,0,.5-.17h-2.93l1.56.27Zm-.18-.49h0Zm.4-.46.49-.21h-.49v.21Zm-.67-.64h0Zm0-1.34h0Zm-.21.89h0Zm.67.21h0Zm.43-.64h0Zm-.61,1.31-2-.21,2,.21Zm.18-.21h0Zm-2.44,1.59,2.26.21v.18h.18v-.18h0v-.21Zm6.28,12.69h0Zm2-.64-2-.24V127Z"/><path class="cls-2" d="M251.45,121.38l.83,0v-.2h-.21v0h0V121h-.43v-.5h0v-.27h0v-.4h0v-.6h-.46v-.61l1.37-.16h-1.37v-.21h0v-.46h0v-.6H251v-.43h-1.1v-.07h.21v-.21h-.43V116h0v-.21h.7v-.21h-.49v.21h-.4V116h0v.46h.18v.21h-.88l.08.07h-.27v.43h-.21v.17h-.73l.73.1v.33h0v.29h-.21v.46h-.24v.6h0v.32h-.21v.6h0v.67h0V121h-.43v.17h-.51l.51,0h0l4.18.19v.21h-2.09l-2.34-.05v.27h0v.24h-1.37a6.41,6.41,0,0,0,.78.12l.59.06v.85l-1.37-.15,1.37.17v.68h.19v.47H247v-.4h.21v-.07H249l.16,1.35V123.8h.06V124h.22v.74l.09-.74h1v0h.29l.17,1v-1h.88v0h.33l.1.53v-1.16h-.06v-.25l1.61-.17h-1.61v-.24h0v-.28l1.4-.15h-1.4v-.69l-.83.07v-.26h0Z"/><path class="cls-2" d="M335.92,125.91l0,.36h-.2v0h-.48v0H335V127l-.1-.74h-.57v0h-.06v.27H334v0a5.92,5.92,0,0,0-.09.7q0,.4,0,.79v-1.53h-.61v0h-.49v0h-.21v.92l-.16-.92h-.73v-.91h0v-.4h0v-.52l-2.89-.15h2.89v-.3h-.06l-.56-.06a5.56,5.56,0,0,1-.72-.12h1.34v-.21h0v-.46h0V123h0v-.46h0v-.21h0v-.2h.61v-1l.19,1h.3v0h.37l.12-.47v.47h.4v0H334l.18-1.57v1.57h1.37v-.68l.21,1.28.18,2.93v.27Z"/><path class="cls-2" d="M107,117.57l0-.42h.15l.27-3.14h-.09l.06-.6H107v0h-.87l-.23-1.17V114l.21,3.14v0h.08v.42h.09v0h.49v0Zm-1.45,0,0-.42h.11l-.21-3.14-.18-1.34v.75H105v0h-.67v0H104l-.12-.75v.75h-.73l-.16-1.17v1.17h-.36l-.1-.75v.75h-.43v.2h0v.21h-1.83l1.83.15v.14h-.18v.11h0v.67h0v.35l-1.16.14h1.16v.4h0v.49h0v.21h-.48v.24h.48v.58l-.27.07h.27v.42h.67l.13,1.59v-1.59h1v0h.18v0H105v0h.19v-.21Z"/></svg>