<?xml version="1.0" encoding="utf-8"?>
<!-- Generator: Adobe Illustrator 21.0.2, SVG Export Plug-In . SVG Version: 6.00 Build 0)  -->
<svg version="1.1" id="Layer_1" xmlns="http://www.w3.org/2000/svg" xmlns:xlink="http://www.w3.org/1999/xlink" x="0px" y="0px"
	 width="29px" height="44.8px" viewBox="0 0 29 44.8" style="enable-background:new 0 0 29 44.8;" xml:space="preserve">
<style type="text/css">
	.st0{fill:none;stroke:#FFFFFF;stroke-width:2;stroke-miterlimit:10;}
	.st1{fill:#FFFFFF;}
</style>
<path class="st0" d="M16,43.8h-3c-6.6,0-12-5.4-12-12V13C1,6.4,6.4,1,13,1h3c6.6,0,12,5.4,12,12v18.8C28,38.4,22.6,43.8,16,43.8z"/>
<path class="st1" d="M14.5,20.4L14.5,20.4c-1.4,0-2.5-1.1-2.5-2.5v-6c0-1.4,1.1-2.5,2.5-2.5h0c1.4,0,2.5,1.1,2.5,2.5v6
	C17,19.3,15.9,20.4,14.5,20.4z"/>
</svg>
