<?xml version="1.0" encoding="utf-8"?>
<!-- Generator: Adobe Illustrator 21.0.2, SVG Export Plug-In . SVG Version: 6.00 Build 0)  -->
<svg version="1.1" id="Isolation_Mode" xmlns="http://www.w3.org/2000/svg" xmlns:xlink="http://www.w3.org/1999/xlink" x="0px"
	 y="0px" width="37.1px" height="36.5px" viewBox="0 0 37.1 36.5" style="enable-background:new 0 0 37.1 36.5;"
	 xml:space="preserve">
<style type="text/css">
	.st0{fill:none;stroke:#5F5F5F;stroke-linecap:round;stroke-miterlimit:10;}
</style>
<path class="st0" d="M0.5,27.8l15-19c0,0,3-5,5-4s1,3,1,3"/>
<path class="st0" d="M19.5,10.8l6-8c0,0,2-2,3-1s0,3,0,3l-5,7"/>
<path class="st0" d="M28.5,4.8c0,0,2-4,4-2c1,1,0,3,0,3l-6,8"/>
<path class="st0" d="M31.5,6.8c0,0,2-3,4-1c1,1,0,3,0,3l-5,7"/>
<path class="st0" d="M34.5,10.8c0,0,1-3,2-1s-6,10-6,10l-13,16c0,0-1-1-2-2s-5-2-5-2s0-2-1-2c-2.2,0-4-1-4-1l-4-1h-1"/>
<line class="st0" x1="23.5" y1="20.8" x2="23.5" y2="23.8"/>
<line class="st0" x1="25.5" y1="18.8" x2="25.5" y2="21.8"/>
<line class="st0" x1="27.5" y1="16.8" x2="27.5" y2="19.8"/>
<line class="st0" x1="12.5" y1="17.8" x2="9.5" y2="20.8"/>
<polyline class="st0" points="20.5,27.8 16.5,31.8 14.5,29.8 "/>
<path class="st0" d="M4.5,29.8v3h3L8.7,34c0.3,0.3,0.8,0.2,1-0.2c0.2-0.6,0.7-1.1,1.8,0c2,2,1,1,1,1"/>
<path class="st0" d="M20.5,34.8c0,0,2-1,3,0s2-7,2-7"/>
<path class="st0" d="M5.5,17.8l2-8c0,0,0-2,2-3s2,1,2,1"/>
<path class="st0" d="M11.5,10.8l1-6c0,0-0.2-4,3-4c2,0,1,4,1,4"/>
<path class="st0" d="M16.5,1.8c0,0,1-2,3-1s1,2,1,2"/>
</svg>
