<?xml version="1.0" encoding="utf-8"?>
<!-- Generator: Adobe Illustrator 21.0.2, SVG Export Plug-In . SVG Version: 6.00 Build 0)  -->
<svg version="1.1" id="Layer_1" xmlns="http://www.w3.org/2000/svg" xmlns:xlink="http://www.w3.org/1999/xlink" x="0px" y="0px"
	 viewBox="0 0 43.8 44.7" style="enable-background:new 0 0 43.8 44.7;" xml:space="preserve">
<style type="text/css">
	.st0{fill:#010101;}
	.st1{fill:none;stroke:#231F20;stroke-width:0.7;stroke-miterlimit:22.9256;}
	.st2{fill:none;stroke:#231F20;stroke-width:0.7;stroke-miterlimit:22.9256;stroke-dasharray:2,2;}
</style>
<g>
	<path class="st0" d="M13.8,10.8L13.8,10.8C13.8,10.8,13.8,10.9,13.8,10.8l-0.1,0.1l0,0C13.6,11,13.6,11,13.6,11l-0.1,0h0
		c0,0-0.1,0-0.1,0c0,0-0.1,0-0.1,0c0,0,0,0-0.1,0c0,0-0.1,0-0.1,0L13,11.2c0,0,0,0-0.1,0c0,0,0,0-0.1,0c0,0-0.1,0-0.1,0
		c0,0-0.1,0-0.1,0l-0.1,0c-0.1,0.1-0.1,0.1-0.2,0.1c-0.1,0-0.1,0-0.2,0l-0.1,0l-0.1,0c0,0-0.1,0-0.1,0c-0.1,0-0.1,0-0.1-0.1
		c0,0-0.1,0-0.1,0.1l0,0c0,0,0,0,0,0c0,0,0,0,0,0c0,0,0,0,0,0c0,0,0,0,0,0c0,0,0,0-0.1-0.1c0,0,0,0,0,0c-0.1,0-0.1,0-0.1-0.1l-0.1,0
		c0,0,0,0,0-0.1s0-0.1,0-0.1c0-0.1,0.2-0.2,0.5-0.4c0.3-0.2,0.5-0.3,0.6-0.4l0,0c0,0,0,0,0,0c0,0,0,0,0,0h0c0,0,0,0,0.1,0
		c0,0,0,0,0.1,0l0,0L13,10c0,0,0.1,0,0.2-0.1c0.1,0,0.2-0.1,0.2-0.1s0.1,0,0.2,0l0,0c0,0,0.1,0,0.1,0c0.1,0,0.2,0.1,0.2,0.2l0,0.1
		c0,0.1-0.1,0.1-0.1,0.1c0,0,0,0,0,0c0,0,0,0,0,0l-0.2,0l-0.1,0c0,0,0,0-0.1,0h0c0,0,0,0-0.1,0l-0.1,0c-0.1,0-0.2,0.1-0.4,0.1
		c-0.2,0.1-0.2,0.1-0.3,0.1c0,0-0.1,0-0.1,0.1c0,0-0.1,0.1-0.2,0.1c-0.3,0.1-0.4,0.2-0.4,0.3c0,0,0.1,0.1,0.4,0.1c0.1,0,0.2,0,0.2,0
		l0.3-0.1l0,0h0.1c0,0,0.1,0,0.1,0c0,0,0.1,0,0.1,0c0,0,0.1,0,0.1,0c0,0,0.1,0,0.1,0c0,0,0,0,0,0c0,0,0,0,0.1,0c0.1,0,0.1,0,0.1-0.1
		l0,0c0,0,0,0,0.1,0h0c0,0,0,0,0.1,0l0.1-0.1h0c0,0,0.1,0,0.1-0.1c0,0,0.1,0,0.1,0c0.1,0,0.1-0.1,0.2-0.2l0.1-0.1
		c0,0,0.1-0.1,0.1-0.1c0,0,0,0,0,0l0,0l0,0c0,0,0,0,0,0v0c0,0,0,0,0,0c0,0,0,0,0,0l0-0.1c0,0,0,0,0,0c0,0,0-0.1-0.1-0.1l0,0v0
		c0,0,0,0-0.1,0c0,0-0.1-0.1-0.2-0.1c-0.1,0-0.2-0.1-0.4-0.1l-0.3-0.1l-0.1,0c0,0-0.1,0-0.1,0c0,0-0.1,0-0.1,0s0,0-0.1,0
		c-0.1,0-0.1,0-0.1,0l-0.1,0l-0.1,0c-0.2,0-0.3,0-0.3-0.1c0-0.2,0.1-0.3,0.3-0.4c0,0,0.1,0,0.1,0l0.2-0.1c0,0,0,0,0.1,0
		c0,0,0.1,0,0.1,0l0,0l0,0c0,0,0.1,0,0.1-0.1s0.1-0.1,0.3-0.1s0.2-0.1,0.2-0.1c0,0,0,0,0.1,0c0,0,0,0,0-0.1c0,0,0-0.1-0.1-0.1l0,0
		c0,0,0,0,0,0c0,0,0,0,0,0c0,0-0.1,0-0.3,0l-0.2,0l-0.1,0l-0.1,0l-0.1,0l-0.1,0c0,0,0,0,0,0c0,0,0,0,0,0s0,0-0.1,0C13,8,13,8,13,8h0
		c0,0,0,0,0,0c0,0,0,0.1,0.1,0.1l0,0.1l0,0.1c0,0,0,0,0,0.1l0,0c0,0,0,0.1-0.1,0.2c0,0.1-0.1,0.1-0.1,0.2L12.6,9l0,0.1
		c0,0.1-0.1,0.2-0.1,0.2s0,0.1,0,0.1c0,0,0,0.1-0.1,0.1l-0.1,0.3c0,0,0,0,0,0c0,0.1,0,0.1-0.1,0.2c0,0.1,0,0.1-0.1,0.2l0,0.1
		c0,0,0,0,0,0.1s0,0.1,0,0.1c0,0,0,0,0,0c-0.1,0-0.1,0-0.2-0.1s-0.1-0.1-0.1-0.1c0,0-0.1-0.1-0.1-0.1c0,0,0-0.1,0.1-0.2
		c0-0.1,0.1-0.1,0.1-0.2c0,0,0-0.1,0-0.1s0-0.1,0-0.1c0,0,0,0,0,0c0,0,0-0.1,0-0.1c0,0,0-0.1,0.1-0.1c0,0,0,0,0,0c0,0,0,0,0-0.1
		c0,0,0,0,0-0.1c0,0,0,0,0-0.1l0,0c0,0,0,0,0-0.1c0,0,0,0,0,0c0-0.1,0-0.1,0.1-0.1c0,0,0.1,0,0.1,0c0,0,0,0,0,0c0,0,0-0.1,0.1-0.1
		c0,0,0,0,0,0c0,0,0,0,0,0l0.1-0.2c0-0.1,0.1-0.1,0.1-0.1h0l0-0.1c0,0,0-0.1,0.1-0.1c0,0,0,0,0-0.1h0l0,0l-0.1,0c0,0-0.1,0-0.2,0
		l0,0h0c0,0,0,0,0,0l0,0c0,0,0,0,0,0c-0.1,0-0.1,0-0.2,0c0,0-0.1,0-0.1,0c0,0,0,0-0.1,0h0c0,0,0,0,0,0c0,0,0,0-0.1,0c0,0,0,0,0,0
		c0,0,0,0-0.1,0.1s-0.1,0.1-0.1,0.1s-0.1,0-0.1,0s0,0-0.1,0l0,0.1c0,0,0,0.1-0.1,0.1s-0.1,0-0.1,0.1c0,0,0,0,0,0c0,0-0.1,0-0.1-0.1
		s0-0.1,0-0.1c0-0.1,0-0.1,0.1-0.2s0.1-0.1,0.1-0.1c0.1,0,0.2-0.1,0.3-0.1c0.1,0,0.2,0,0.2-0.1c0,0,0,0,0,0l0.1,0c0,0,0,0,0.1,0
		c0.2-0.1,0.3-0.1,0.4-0.1h0l0.1,0l0.1,0c0,0,0.1,0,0.1,0c0,0,0,0,0,0c0,0,0,0,0,0c0,0,0,0,0,0c0,0,0.1,0,0.2,0c0.1,0,0.1,0,0.2,0h0
		l0.1,0l0.2,0l0.2,0l0.1,0l0.1,0l0.2,0l0.3,0c0.1,0,0.2,0.1,0.3,0.1C14.4,7.9,14.4,8,14.5,8c0,0,0,0.1,0,0.2c0,0.1-0.1,0.3-0.3,0.4
		c-0.2,0.1-0.4,0.2-0.5,0.3C13.6,8.9,13.5,9,13.5,9s0,0,0.1,0c0.1,0,0.1,0,0.2,0c0,0,0,0,0.1,0s0.1,0,0.1,0c0.1,0,0.1,0,0.1,0
		c0.2,0.1,0.4,0.2,0.4,0.3c0,0,0,0,0,0c0,0,0.1,0.1,0.1,0.1c0,0,0.1,0.1,0.1,0.2l0,0c0,0,0,0,0,0.1c0,0.2,0,0.3-0.1,0.3
		c0,0,0,0,0,0.1c0,0,0,0.1-0.1,0.2c-0.1,0.1-0.1,0.1-0.2,0.1c0,0,0,0-0.1,0.1l0,0c0,0-0.1,0-0.1,0c0,0,0,0,0,0c0,0,0,0,0,0
		c0,0,0,0-0.1,0c0,0,0,0,0,0h0C14,10.8,13.9,10.8,13.8,10.8z"/>
	<path class="st0" d="M17,7.7L17,7.7c0.1,0,0.1,0,0.1-0.1c0,0,0,0,0,0h0c0,0,0.1,0,0.1-0.1s0.1,0,0.1,0c0.1,0,0.1,0,0.1,0s0,0,0.1,0
		c0,0,0,0,0,0l0.1,0c0.1,0,0.1,0,0.1,0c0,0,0.1,0.1,0.1,0.1C18,7.7,18,7.8,18,7.9v0L18,8l0,0c0,0,0,0,0,0l0,0c0,0,0,0.1,0,0.1
		c0,0,0,0.1,0,0.1l0,0l0,0.1l-0.1,0.1l-0.1,0.1l-0.1,0.1l0,0c0,0,0,0.1-0.1,0.1V9c0,0,0,0.1,0,0.1c0,0,0,0.1,0,0.1l0,0.1
		c0,0,0,0,0.1,0c0,0,0,0,0.1,0c0,0,0.1,0,0.1,0L18,9.1c0,0,0,0,0,0c0,0,0,0,0,0l0.1,0c0,0,0,0,0,0c0.1,0,0.1,0,0.2,0
		C18.5,9,18.7,9,18.8,9L19,9c0,0,0,0,0-0.1c0,0,0-0.1,0-0.1c0,0,0,0,0-0.1c0,0,0,0,0-0.1l0-0.1l0.1-0.1l0-0.1c0,0,0-0.1,0.1-0.1v0
		c0,0,0-0.1,0.1-0.1l0,0V8c0,0,0,0,0.1-0.1l0,0l0-0.1c0,0,0,0,0-0.1s0,0,0,0s0,0,0-0.1l0-0.1c0,0,0,0,0,0c0,0,0,0,0-0.1
		c0-0.1,0.1-0.2,0.2-0.2c0,0,0.1,0,0.1,0.1c0.1,0.1,0.1,0.1,0.1,0.1c0,0.1,0,0.2,0,0.3c0,0,0,0,0,0.1c0,0-0.1,0.1-0.1,0.2l0,0.1h0
		l0,0l0,0.1l0,0v0c0,0,0,0,0,0s0,0,0,0.1c0,0,0,0,0,0.1v0l0,0c0,0.1-0.1,0.1-0.1,0.1c0,0,0,0,0,0.1c0,0,0,0.1-0.1,0.1c0,0,0,0,0,0
		l0,0.1c0,0,0.1,0,0.3,0l0.1,0l0.1,0c0,0,0,0,0,0l0,0c0.1,0,0.1,0,0.1,0.1c0,0.1,0,0.1-0.1,0.2S20,9.3,19.9,9.3c0,0,0,0-0.1,0
		c0,0,0,0-0.1,0l-0.1,0l-0.1,0l0,0l0,0l0,0l0,0c0,0-0.1,0-0.1,0h-0.1c0,0,0,0.1-0.1,0.2c-0.1,0.1-0.1,0.2-0.1,0.3c0,0,0,0,0,0
		c0,0.1,0,0.1-0.1,0.1l0,0c0,0,0,0.1,0,0.1c0,0,0,0.1-0.1,0.1c0,0-0.1,0.1-0.1,0.1c0,0,0,0.1,0,0.2c0,0.1,0,0.1-0.1,0.1s0,0-0.1,0.1
		c0,0-0.1,0.1-0.1,0.1c0,0,0,0,0,0l0,0c0,0.1,0,0.1-0.1,0.1v0c0,0,0,0-0.1,0.1c0,0,0,0,0,0c0,0,0,0.1,0,0.1c0,0,0,0,0,0l0,0
		c0,0,0,0,0,0c0,0,0,0.1,0,0.2c0,0,0.1,0.1,0.1,0.1l0,0c0,0,0,0,0,0l0,0.1c0,0,0,0-0.1,0.1s-0.1,0-0.1,0c-0.1,0-0.1,0-0.1,0
		c0,0,0,0-0.1,0c0,0,0,0,0,0s0,0,0-0.1s0-0.1,0-0.2v0l0-0.1v0l0-0.1l0-0.1c0,0,0,0,0,0c0,0,0,0,0,0c0-0.1,0-0.1,0-0.2l-0.1-0.3
		c0,0,0,0,0-0.1c-0.1,0-0.1,0-0.1-0.1c0,0,0,0,0,0c0,0,0,0,0,0L17.4,10c0,0,0,0,0,0c0,0,0,0-0.1,0c0,0,0,0-0.1,0l0,0l-0.1,0l-0.1,0
		c0,0,0,0,0,0.1c0,0-0.1,0.1-0.1,0.2c0,0,0,0.1-0.1,0.1l0,0v0.1c0,0,0,0,0,0.1s0,0-0.1,0c0,0,0,0,0,0v0l0,0c0,0,0,0,0,0.1
		s0,0.1-0.1,0.1l0,0v0.1l0,0.1c0,0.1-0.1,0.2-0.1,0.2c0,0,0,0,0,0l0,0c0,0,0,0,0,0c0,0,0,0.1-0.1,0.1s-0.1,0-0.1,0
		c0,0.1,0,0.1,0,0.1c0,0,0,0-0.1,0h0l0,0.1c0,0-0.1,0.1-0.1,0.1c0,0,0,0,0,0v0c0,0.1,0,0.1-0.1,0.1c0,0-0.1,0-0.2-0.1
		c-0.1-0.1-0.1-0.2-0.1-0.3l0-0.1c0-0.1,0-0.2,0-0.2c0,0,0-0.1,0-0.1c0,0,0-0.1,0-0.1c0,0,0,0,0-0.1l0,0l0-0.1l0-0.1
		c0-0.1,0.1-0.1,0.1-0.1c0,0,0,0,0-0.1c0,0,0-0.1,0-0.1c0,0,0-0.1,0.1-0.1l0,0c0.1-0.2,0.2-0.3,0.2-0.3c0,0,0-0.1,0-0.1c0,0,0,0,0,0
		s0,0,0,0s0,0-0.1,0c0,0-0.1,0-0.1,0c0,0,0,0-0.1,0h0c0,0,0,0,0,0c0,0,0,0,0,0c0,0,0-0.1,0.1-0.1c0.1-0.1,0.2-0.1,0.3-0.1
		c0,0,0,0,0.1,0s0.1,0,0.1,0l0,0l0,0c0-0.1,0.1-0.1,0.1-0.2v0c0,0,0,0,0.1-0.1C17,9.1,17,9.1,17,9V9c0,0,0.1-0.1,0.1-0.1
		c0,0,0.1-0.1,0.1-0.2l0-0.1c0-0.1,0.1-0.2,0.1-0.2s0.1-0.1,0.1-0.2l0-0.1l0-0.1c0-0.1,0.1-0.1,0.1-0.2c0-0.1,0-0.1,0-0.1l-0.2,0
		l-0.1,0c0,0-0.1,0-0.1,0c0,0-0.1,0-0.1,0.1L17,8c0,0,0,0-0.1,0s-0.1,0-0.2,0.1c0,0,0,0,0,0.1h-0.1l-0.1,0.1c-0.1,0-0.1,0.1-0.1,0.1
		c0,0,0,0-0.1,0c0,0-0.1,0.1-0.2,0.3l0,0l0,0c0,0,0,0-0.1,0c0,0-0.1,0.1-0.1,0.1c0,0-0.1,0-0.1,0c-0.1,0-0.1-0.1-0.1-0.2
		c0-0.1,0.1-0.2,0.4-0.3l0.1,0c0,0,0.1,0,0.1,0C16.3,8.1,16.4,8,16.4,8c0.1,0,0.1,0,0.1-0.1c0,0,0.1,0,0.1-0.1c0.1,0,0.1,0,0.1-0.1
		s0,0,0,0L17,7.7L17,7.7z M16.5,9.7C16.5,9.7,16.5,9.7,16.5,9.7C16.6,9.7,16.6,9.7,16.5,9.7C16.6,9.7,16.6,9.7,16.5,9.7
		C16.5,9.7,16.5,9.7,16.5,9.7z M17.6,9.9L17.6,9.9C17.7,9.9,17.7,9.9,17.6,9.9c0.1,0,0.2,0.1,0.3,0.1c0.1,0.1,0.1,0.1,0.1,0.1
		c0,0,0,0.1,0.1,0.1c0,0,0,0.1,0.1,0.2s0,0.1,0.1,0.1c0,0,0-0.1,0-0.1l0.1-0.3c0,0,0,0,0,0l0,0l0,0c0,0,0,0,0,0c0,0,0-0.1,0.1-0.1
		l0-0.1l0.1-0.1c0,0,0-0.1,0-0.1c0,0,0-0.1,0-0.1l0,0c0-0.1,0-0.1,0.1-0.2l0,0c0,0,0,0,0,0c0,0,0,0,0,0h0c0,0,0,0-0.1,0h0
		c0,0,0,0,0,0h0l-0.1,0h0l0,0c0,0,0,0-0.1,0c0,0,0,0-0.1,0s-0.1,0-0.1,0l-0.1,0l-0.1,0h-0.1l-0.1,0c0,0-0.1,0.1-0.1,0.1l0,0h0
		l-0.1,0c0,0,0,0,0,0c0,0,0,0,0,0c0,0.1-0.1,0.1-0.1,0.1s-0.1,0-0.1,0c-0.1,0-0.1,0-0.1,0c0,0,0,0,0,0c-0.1,0.1-0.1,0.2-0.1,0.2
		c0,0,0,0,0.1,0l0,0c0,0,0,0,0.1,0s0.1,0,0.1,0l0,0c0,0,0,0,0.1,0L17.6,9.9z"/>
</g>
<polygon class="st1" points="22.5,40.3 8.5,34.3 8.5,5.3 38.5,5.3 38.5,34.3 "/>
<g>
	<g>
		<line class="st1" x1="9" y1="14.5" x2="10" y2="14.5"/>
		<line class="st2" x1="12" y1="14.5" x2="35" y2="14.5"/>
		<line class="st1" x1="36" y1="14.5" x2="37" y2="14.5"/>
	</g>
</g>
</svg>
