<?xml version="1.0" encoding="utf-8"?>
<!-- Generator: Adobe Illustrator 21.0.2, SVG Export Plug-In . SVG Version: 6.00 Build 0)  -->
<svg version="1.1" id="Layer_1" xmlns="http://www.w3.org/2000/svg" xmlns:xlink="http://www.w3.org/1999/xlink" x="0px" y="0px"
	 viewBox="0 0 10.8 6.6" style="enable-background:new 0 0 10.8 6.6;" xml:space="preserve">
<style type="text/css">
	.st0{fill:#010101;}
</style>
<g>
	<path class="st0" d="M3.6,4.3L3.6,4.3C3.6,4.3,3.6,4.3,3.6,4.3L3.5,4.3l0,0C3.5,4.4,3.4,4.4,3.4,4.4l-0.1,0h0c0,0-0.1,0-0.1,0
		s-0.1,0-0.1,0c0,0,0,0-0.1,0c0,0-0.1,0-0.1,0L2.8,4.6c0,0,0,0-0.1,0c0,0,0,0-0.1,0c0,0-0.1,0-0.1,0c0,0-0.1,0-0.1,0l-0.1,0
		C2.4,4.8,2.3,4.8,2.2,4.8c-0.1,0-0.1,0-0.2,0L2,4.8l-0.1,0c0,0-0.1,0-0.1,0c-0.1,0-0.1,0-0.1-0.1c0,0-0.1,0-0.1,0.1l0,0
		c0,0,0,0,0,0c0,0,0,0,0,0c0,0,0,0,0,0c0,0,0,0,0,0c0,0,0,0-0.1-0.1c0,0,0,0,0,0c-0.1,0-0.1,0-0.1-0.1l-0.1,0c0,0,0,0,0-0.1
		s0-0.1,0-0.1c0-0.1,0.2-0.2,0.5-0.4c0.3-0.2,0.5-0.3,0.6-0.4l0,0c0,0,0,0,0,0c0,0,0,0,0,0h0c0,0,0,0,0.1,0c0,0,0,0,0.1,0l0,0
		l0.4-0.2c0,0,0.1,0,0.2-0.1c0.1,0,0.2-0.1,0.2-0.1c0,0,0.1,0,0.2,0l0,0c0,0,0.1,0,0.1,0c0.1,0,0.2,0.1,0.2,0.2l0,0.1
		c0,0.1-0.1,0.1-0.1,0.1c0,0,0,0,0,0s0,0,0,0l-0.2,0l-0.1,0c0,0,0,0-0.1,0h0c0,0,0,0-0.1,0l-0.1,0c-0.1,0-0.2,0.1-0.4,0.1
		C2.4,3.9,2.3,3.9,2.3,3.9c0,0-0.1,0-0.1,0.1S2.1,4.1,2,4.1C1.7,4.2,1.6,4.3,1.6,4.4c0,0,0.1,0.1,0.4,0.1c0.1,0,0.2,0,0.2,0l0.3-0.1
		l0,0h0.1c0,0,0.1,0,0.1,0c0,0,0.1,0,0.1,0c0,0,0.1,0,0.1,0c0,0,0.1,0,0.1,0c0,0,0,0,0,0c0,0,0,0,0.1,0c0.1,0,0.1,0,0.1-0.1l0,0
		c0,0,0,0,0.1,0h0c0,0,0,0,0.1,0l0.1-0.1h0c0,0,0.1,0,0.1-0.1c0,0,0.1,0,0.1,0C3.9,3.7,4,3.7,4,3.6l0.1-0.1c0,0,0.1-0.1,0.1-0.1
		c0,0,0,0,0,0l0,0l0,0c0,0,0,0,0,0v0c0,0,0,0,0,0c0,0,0,0,0,0l0-0.1c0,0,0,0,0,0c0,0,0-0.1-0.1-0.1l0,0v0c0,0,0,0-0.1,0
		C4.2,3,4.1,3,4,2.9S3.8,2.8,3.6,2.8L3.4,2.8l-0.1,0c0,0-0.1,0-0.1,0c0,0-0.1,0-0.1,0s0,0-0.1,0c-0.1,0-0.1,0-0.1,0l-0.1,0l-0.1,0
		c-0.2,0-0.3,0-0.3-0.1c0-0.2,0.1-0.3,0.3-0.4c0,0,0.1,0,0.1,0L3,2.2c0,0,0.1,0,0.1,0c0,0,0.1,0,0.1,0l0,0l0,0c0,0,0.1,0,0.1-0.1
		c0.1,0,0.1-0.1,0.3-0.1s0.2-0.1,0.2-0.1c0,0,0,0,0.1,0c0,0,0,0,0-0.1c0,0,0-0.1-0.1-0.1l0,0c0,0,0,0,0,0c0,0,0,0,0,0
		c0,0-0.1,0-0.3,0l-0.2,0l-0.1,0l-0.1,0L3,1.4L3,1.4c0,0,0,0,0,0s0,0,0,0s0,0-0.1,0c0,0-0.1,0-0.1,0h0c0,0,0,0,0,0
		c0,0,0,0.1,0.1,0.1l0,0.1l0,0.1c0,0,0,0,0,0.1l0,0c0,0,0,0.1-0.1,0.2c0,0.1-0.1,0.1-0.1,0.2L2.5,2.4l0,0.1c0,0.1-0.1,0.2-0.1,0.2
		c0,0,0,0.1,0,0.1c0,0,0,0.1-0.1,0.1L2.1,3.2c0,0,0,0,0,0C2,3.4,2,3.4,2,3.5C2,3.5,2,3.6,2,3.6l0,0.1c0,0,0,0,0,0.1s0,0.1,0,0.1
		c0,0,0,0,0,0c-0.1,0-0.1,0-0.2-0.1S1.6,3.6,1.6,3.6c0,0-0.1-0.1-0.1-0.1c0,0,0-0.1,0.1-0.2c0-0.1,0.1-0.1,0.1-0.2c0,0,0-0.1,0-0.1
		s0-0.1,0-0.1c0,0,0,0,0,0c0,0,0-0.1,0-0.1c0,0,0-0.1,0.1-0.1c0,0,0,0,0,0c0,0,0,0,0-0.1c0,0,0,0,0-0.1c0,0,0,0,0-0.1l0,0
		c0,0,0,0,0-0.1c0,0,0,0,0,0c0-0.1,0-0.1,0.1-0.1c0,0,0.1,0,0.1,0c0,0,0,0,0,0c0,0,0-0.1,0.1-0.1c0,0,0,0,0,0c0,0,0,0,0,0l0.1-0.2
		c0-0.1,0.1-0.1,0.1-0.1h0l0-0.1c0,0,0-0.1,0.1-0.1c0,0,0,0,0-0.1h0l0,0l-0.1,0c0,0-0.1,0-0.2,0l0,0h0c0,0,0,0,0,0l0,0c0,0,0,0,0,0
		c-0.1,0-0.1,0-0.2,0s-0.1,0-0.1,0c0,0,0,0-0.1,0h0c0,0,0,0,0,0c0,0-0.1,0-0.1,0c0,0,0,0,0,0c0,0,0,0-0.1,0.1c0,0-0.1,0.1-0.1,0.1
		c0,0-0.1,0-0.1,0s0,0-0.1,0l0,0.1c0,0,0,0.1-0.1,0.1c0,0-0.1,0-0.1,0.1c0,0,0,0,0,0c0,0-0.1,0-0.1-0.1c0,0,0-0.1,0-0.1
		c0-0.1,0-0.1,0.1-0.2s0.1-0.1,0.1-0.1c0.1,0,0.1-0.1,0.3-0.1c0.1,0,0.2,0,0.2-0.1c0,0,0,0,0,0l0.1,0c0,0,0,0,0.1,0
		c0.2-0.1,0.3-0.1,0.4-0.1h0l0.1,0l0.1,0c0,0,0.1,0,0.1,0c0,0,0,0,0,0c0,0,0,0,0,0c0,0,0,0,0,0c0,0,0.1,0,0.2,0c0.1,0,0.1,0,0.2,0h0
		l0.1,0l0.2,0l0.2,0l0.1,0l0.1,0l0.2,0l0.3,0c0.1,0,0.2,0.1,0.3,0.1c0.1,0.1,0.2,0.1,0.2,0.2c0,0,0,0.1,0,0.2C4.3,1.7,4.2,1.9,4,2
		C3.8,2.2,3.7,2.3,3.5,2.3C3.4,2.4,3.3,2.4,3.3,2.4s0,0,0.1,0s0.1,0,0.2,0c0,0,0,0,0.1,0c0,0,0.1,0,0.1,0c0.1,0,0.1,0,0.1,0
		c0.2,0.1,0.4,0.2,0.4,0.3c0,0,0,0,0,0c0,0,0.1,0.1,0.1,0.1c0,0,0.1,0.1,0.1,0.2l0,0c0,0,0,0,0,0.1c0,0.2,0,0.3-0.1,0.3
		c0,0,0,0,0,0.1c0,0,0,0.1-0.1,0.2S4.3,3.9,4.2,3.9c0,0,0,0-0.1,0.1l0,0c0,0-0.1,0-0.1,0c0,0,0,0,0,0c0,0,0,0,0,0c0,0,0,0-0.1,0
		c0,0,0,0,0,0h0C3.8,4.2,3.7,4.3,3.6,4.3z"/>
	<path class="st0" d="M6.7,1.2L6.7,1.2c0.1,0,0.1,0,0.1-0.1c0,0,0,0,0,0h0c0,0,0.1,0,0.1-0.1c0,0,0.1,0,0.1,0c0.1,0,0.1,0,0.1,0
		c0,0,0,0,0.1,0c0,0,0,0,0,0l0.1,0c0.1,0,0.1,0,0.1,0c0,0,0.1,0.1,0.1,0.1c0.1,0,0.1,0.1,0.1,0.3v0l0,0.1l0,0c0,0,0,0,0,0l0,0
		c0,0,0,0.1,0,0.1s0,0.1,0,0.1l0,0l0,0.1L7.4,2.1L7.4,2.2L7.3,2.3l0,0c0,0,0,0.1-0.1,0.1v0.1c0,0,0,0.1,0,0.1c0,0,0,0.1,0,0.1l0,0.1
		c0,0,0,0,0.1,0c0,0,0,0,0.1,0c0,0,0.1,0,0.1,0l0.3-0.1c0,0,0,0,0,0c0,0,0,0,0,0l0.1,0c0,0,0,0,0,0c0.1,0,0.1,0,0.2,0
		c0.1,0,0.3-0.1,0.4-0.1l0.3-0.1c0,0,0,0,0-0.1s0-0.1,0-0.1c0,0,0,0,0-0.1s0,0,0-0.1l0-0.1L9,1.9l0-0.1c0,0,0-0.1,0.1-0.1v0
		c0,0,0-0.1,0.1-0.1l0,0V1.5c0,0,0,0,0.1-0.1l0,0l0-0.1c0,0,0,0,0-0.1s0,0,0,0s0,0,0-0.1l0-0.1c0,0,0,0,0,0c0,0,0,0,0-0.1
		c0-0.1,0.1-0.2,0.2-0.2c0,0,0.1,0,0.1,0.1c0.1,0.1,0.1,0.1,0.1,0.1c0,0.1,0,0.2,0,0.3c0,0,0,0,0,0.1c0,0-0.1,0.1-0.1,0.2l0,0.1h0
		l0,0l0,0.1l0,0v0c0,0,0,0,0,0c0,0,0,0,0,0.1c0,0,0,0,0,0.1v0l0,0C9.4,2,9.4,2,9.4,2.1c0,0,0,0,0,0.1c0,0,0,0.1-0.1,0.1c0,0,0,0,0,0
		l0,0.1c0,0,0.1,0,0.3,0l0.1,0l0.1,0c0,0,0,0,0,0l0,0c0.1,0,0.1,0,0.1,0.1c0,0.1,0,0.1-0.1,0.2S9.7,2.7,9.6,2.7c0,0,0,0-0.1,0
		s0,0-0.1,0l-0.1,0l-0.1,0l0,0l0,0l0,0l0,0c0,0-0.1,0-0.1,0H9c0,0,0,0.1-0.1,0.2S8.8,3.1,8.8,3.2c0,0,0,0,0,0c0,0.1,0,0.1-0.1,0.1
		l0,0c0,0,0,0.1,0,0.1c0,0,0,0.1-0.1,0.1c0,0-0.1,0.1-0.1,0.1s0,0.1,0,0.2s0,0.1-0.1,0.1c0,0,0,0-0.1,0.1c0,0-0.1,0.1-0.1,0.1
		s0,0,0,0l0,0c0,0.1,0,0.1-0.1,0.1v0c0,0,0,0-0.1,0.1c0,0,0,0,0,0c0,0,0,0.1,0,0.1c0,0,0,0,0,0l0,0c0,0,0,0,0,0c0,0,0,0.1,0,0.2
		c0,0,0.1,0.1,0.1,0.1l0,0c0,0,0,0,0,0l0,0.1c0,0,0,0-0.1,0.1S8,5.1,8,5.1c-0.1,0-0.1,0-0.1,0c0,0,0,0-0.1,0c0,0,0,0,0,0
		c0,0,0,0,0-0.1c0,0,0-0.1,0-0.2v0l0-0.1v0l0-0.1l0-0.1c0,0,0,0,0,0c0,0,0,0,0,0c0-0.1,0-0.1,0-0.2L7.6,3.8c0,0,0,0,0-0.1
		c-0.1,0-0.1,0-0.1-0.1s0,0,0,0s0,0,0,0L7.1,3.4c0,0,0,0,0,0s0,0-0.1,0c0,0,0,0-0.1,0l0,0l-0.1,0l-0.1,0c0,0,0,0,0,0.1
		S6.6,3.5,6.6,3.6c0,0,0,0.1-0.1,0.1l0,0v0.1c0,0,0,0,0,0.1c0,0,0,0-0.1,0c0,0,0,0,0,0v0l0,0c0,0,0,0,0,0.1c0,0,0,0.1-0.1,0.1l0,0
		v0.1l0,0.1c0,0.1-0.1,0.2-0.1,0.2c0,0,0,0,0,0l0,0c0,0,0,0,0,0c0,0,0,0.1-0.1,0.1c0,0-0.1,0-0.1,0c0,0.1,0,0.1,0,0.1c0,0,0,0-0.1,0
		h0L6,5c0,0-0.1,0.1-0.1,0.1c0,0,0,0,0,0v0c0,0.1,0,0.1-0.1,0.1c0,0-0.1,0-0.2-0.1C5.6,5,5.5,4.9,5.5,4.8l0-0.1c0-0.1,0-0.2,0-0.2
		c0,0,0-0.1,0-0.1c0,0,0-0.1,0-0.1c0,0,0,0,0-0.1l0,0l0-0.1l0-0.1C5.8,4,5.8,4,5.8,4c0,0,0,0,0-0.1c0,0,0-0.1,0-0.1
		c0,0,0-0.1,0.1-0.1l0,0c0.1-0.2,0.2-0.3,0.2-0.3c0,0,0-0.1,0-0.1c0,0,0,0,0,0s0,0,0,0c0,0,0,0-0.1,0c0,0-0.1,0-0.1,0c0,0,0,0-0.1,0
		h0c0,0,0,0,0,0c0,0,0,0,0,0c0,0,0-0.1,0.1-0.1S6.1,3,6.2,3c0,0,0,0,0.1,0c0,0,0.1,0,0.1,0l0,0l0,0c0-0.1,0.1-0.1,0.1-0.2v0
		c0,0,0,0,0.1-0.1c0-0.1,0.1-0.1,0.1-0.1V2.4c0,0,0.1-0.1,0.1-0.1c0,0,0.1-0.1,0.1-0.2l0-0.1C7,2,7,1.9,7.1,1.8
		c0-0.1,0.1-0.1,0.1-0.2l0-0.1l0-0.1c0-0.1,0.1-0.1,0.1-0.2c0-0.1,0-0.1,0-0.1l-0.2,0L7,1.3c0,0-0.1,0-0.1,0c0,0-0.1,0-0.1,0.1
		l-0.1,0c0,0,0,0-0.1,0c0,0-0.1,0-0.2,0.1c0,0,0,0,0,0.1H6.3L6.2,1.6c-0.1,0-0.1,0.1-0.1,0.1c0,0,0,0-0.1,0c0,0-0.1,0.1-0.2,0.3l0,0
		l0,0c0,0,0,0-0.1,0c0,0-0.1,0.1-0.1,0.1c0,0-0.1,0-0.1,0C5.4,2.1,5.4,2.1,5.4,2c0-0.1,0.1-0.2,0.4-0.3l0.1,0c0,0,0.1,0,0.1,0
		C6,1.5,6.1,1.5,6.1,1.4c0.1,0,0.1,0,0.1-0.1s0.1,0,0.1-0.1c0.1,0,0.1,0,0.1-0.1c0,0,0,0,0,0L6.7,1.2L6.7,1.2z M6.2,3.1
		C6.2,3.1,6.2,3.1,6.2,3.1C6.3,3.1,6.3,3.1,6.2,3.1C6.3,3.1,6.3,3.1,6.2,3.1C6.2,3.1,6.2,3.1,6.2,3.1z M7.3,3.3L7.3,3.3
		C7.4,3.4,7.4,3.4,7.3,3.3c0.1,0,0.2,0.1,0.3,0.1c0.1,0.1,0.1,0.1,0.1,0.1c0,0,0,0.1,0.1,0.1c0,0,0,0.1,0.1,0.2s0,0.1,0.1,0.1
		c0,0,0-0.1,0-0.1L8,3.6c0,0,0,0,0,0l0,0l0,0c0,0,0,0,0,0c0,0,0-0.1,0.1-0.1l0-0.1l0.1-0.1c0,0,0-0.1,0-0.1c0,0,0-0.1,0-0.1l0,0
		c0-0.1,0-0.1,0.1-0.2l0,0c0,0,0,0,0,0c0,0,0,0,0,0h0c0,0,0,0-0.1,0h0c0,0,0,0,0,0h0l-0.1,0h0l0,0c0,0,0,0-0.1,0c0,0,0,0-0.1,0
		c0,0-0.1,0-0.1,0l-0.1,0l-0.1,0H7.6l-0.1,0c0,0-0.1,0.1-0.1,0.1l0,0h0l-0.1,0c0,0,0,0,0,0c0,0,0,0,0,0c0,0.1-0.1,0.1-0.1,0.1
		S7.1,3,7,3C7,3,7,3,6.9,3c0,0,0,0,0,0C6.8,3.1,6.8,3.2,6.8,3.2c0,0,0,0,0.1,0l0,0c0,0,0,0,0.1,0s0.1,0,0.1,0l0,0c0,0,0,0,0.1,0
		L7.3,3.3z"/>
</g>
</svg>
