<?xml version="1.0" encoding="utf-8"?>
<!-- Generator: Adobe Illustrator 21.0.2, SVG Export Plug-In . SVG Version: 6.00 Build 0)  -->
<svg version="1.1" id="Isolation_Mode" xmlns="http://www.w3.org/2000/svg" xmlns:xlink="http://www.w3.org/1999/xlink" x="0px"
	 y="0px" width="53.6px" height="58.6px" viewBox="0 0 53.6 58.6" style="enable-background:new 0 0 53.6 58.6;"
	 xml:space="preserve">
<style type="text/css">
	.st0{fill:none;stroke:#5F5F5F;stroke-miterlimit:10;}
	.st1{fill:none;stroke:#5F5F5F;stroke-linecap:round;stroke-miterlimit:10;}
</style>
<g>
	<g>
		<path class="st0" d="M19.7,21.3c0,0-0.2-0.1-0.5-0.4c-1.6-1.4-7-6.3-7.7-8.8C10.7,8.7,22.4,0.6,22.4,0.6l12.7,12.6l5.4,3.4
			c0,0,1.8,4.6,2.7,10.3c0.9,5.7-0.9,10.3,1.8,16.1c1.8,3.8,5.5,9.5,7.8,13c0.6,0.9-0.1,2.3-1,1.9c-4-1.6-10.7-4.5-13.2-6.8
			c-3.6-3.4-9-13.8-9.9-16.1c-0.9-2.3-3.6-8-5.4-10.3C21.5,22.5,19.7,21.3,19.7,21.3"/>
		<path class="st0" d="M34.6,12.7c0,0-0.5,5.2-3.2,9.8s-5,7.5-5,7.5"/>
		<path class="st0" d="M32.6,10.7c0,0-0.5,4.9-3.2,9.3s-5,7.1-5,7.1"/>
		<path class="st0" d="M33.6,12.1c0,0-0.5,4.8-3.2,9.1c-1,1.5-1.9,2.9-2.7,3.9c-1.4,1.9-2.3,3-2.3,3"/>
	</g>
	<path class="st0" d="M46.6,55.6"/>
	<path class="st0" d="M28.6,34.6"/>
	<path class="st0" d="M45.1,53.1"/>
	<path class="st0" d="M43.6,36.6c0,0-0.7-0.7-1-0.9"/>
	<path class="st0" d="M43.6,35.6"/>
	<path class="st0" d="M43.6,29.6"/>
	<path class="st0" d="M42.6,25.6"/>
	<path class="st0" d="M39.6,38.6c0,0,1-5,4-6"/>
	<path class="st0" d="M41.6,43.6c0,0,0-7,1.5-7.5"/>
	<path class="st0" d="M44.1,41.1c0,0-1.5,3.5-0.5,5.5"/>
	<g>
		<path class="st1" d="M39.8,55.5c0.6,0.8-0.1,1.9-0.9,1.6c-3.8-1.3-10.2-3.7-12.5-5.7c-3.4-2.8-8.6-11.4-9.5-13.3
			c-0.9-1.9-3.4-6.6-5.2-8.5s-3.4-2.8-3.4-2.8"/>
		<path class="st1" d="M8.3,26.7c0,0-0.2-0.1-0.4-0.3c-1.5-1.2-6.7-5.2-7.3-7.3c-0.9-2.8,9-9.5,9-9.5"/>
		<path class="st1" d="M14.8,33.9"/>
		<path class="st1" d="M22.5,19.6"/>
		<path class="st1" d="M12.8,31.5"/>
		<path class="st1" d="M20.6,18"/>
		<path class="st1" d="M21.5,19.1"/>
	</g>
	<path class="st0" d="M30,47.6"/>
	<path class="st0" d="M30,42.6"/>
	<path class="st0" d="M29.1,39.3"/>
	<path class="st0" d="M30,45.1"/>
	<path class="st0" d="M26.2,50"/>
	<path class="st0" d="M28.1,54.2"/>
	<path class="st0" d="M30.5,52.1"/>
</g>
</svg>
